<svg width="80" height="80" viewBox="0 0 80 80" fill="none" xmlns="http://www.w3.org/2000/svg">
<circle cx="40" cy="40" r="40" fill="#1C3FAA"/>
<path d="M55.166 29.7083H23.8327C21.6696 29.7083 19.916 31.4618 19.916 33.6249V53.2083C19.916 55.3714 21.6696 57.1249 23.8327 57.1249H55.166C57.3291 57.1249 59.0827 55.3714 59.0827 53.2083V33.6249C59.0827 31.4618 57.3291 29.7083 55.166 29.7083Z" stroke="white" stroke-width="3" stroke-linecap="round" stroke-linejoin="round"/>
<path d="M47.3327 57.125V25.7917C47.3327 24.7529 46.92 23.7567 46.1855 23.0222C45.451 22.2876 44.4548 21.875 43.416 21.875H35.5827C34.5439 21.875 33.5477 22.2876 32.8132 23.0222C32.0787 23.7567 31.666 24.7529 31.666 25.7917V57.125" stroke="white" stroke-width="3" stroke-linecap="round" stroke-linejoin="round"/>
</svg>
