<svg width="66" height="26" viewBox="0 0 66 26" fill="none" xmlns="http://www.w3.org/2000/svg">
<rect width="66" height="25.6667" rx="8" fill="#D68205"/>
<path d="M17.6611 17.5833H16.3896V9.15463L13.8398 10.0912V8.94272L17.4629 7.58237H17.6611V17.5833ZM21.9473 12.5931L22.4531 7.63022H27.5527V8.79916H23.5264L23.2256 11.513C23.7132 11.2259 24.2669 11.0824 24.8867 11.0824C25.7936 11.0824 26.5137 11.3831 27.0469 11.9847C27.5801 12.5817 27.8467 13.3906 27.8467 14.4115C27.8467 15.4369 27.5687 16.2458 27.0127 16.8382C26.4613 17.4261 25.6888 17.7201 24.6953 17.7201C23.8158 17.7201 23.098 17.4762 22.542 16.9886C21.986 16.501 21.6693 15.8265 21.5918 14.9652H22.7881C22.8656 15.5348 23.0684 15.9655 23.3965 16.2572C23.7246 16.5443 24.1576 16.6878 24.6953 16.6878C25.2832 16.6878 25.7435 16.4873 26.0762 16.0863C26.4134 15.6852 26.582 15.1315 26.582 14.4251C26.582 13.7598 26.3997 13.2266 26.0352 12.8255C25.6751 12.4199 25.1943 12.2171 24.5928 12.2171C24.0413 12.2171 23.6084 12.3379 23.2939 12.5794L22.959 12.8529L21.9473 12.5931ZM29.1182 9.54428C29.1182 8.94728 29.3073 8.45509 29.6855 8.06772C30.0684 7.68035 30.5583 7.48666 31.1553 7.48666C31.7614 7.48666 32.2513 7.68263 32.625 8.07455C33.0033 8.46192 33.1924 8.9655 33.1924 9.5853V10.0706C33.1924 10.6722 33.001 11.1644 32.6182 11.5472C32.2399 11.9255 31.7568 12.1146 31.1689 12.1146C30.5765 12.1146 30.0866 11.9255 29.6992 11.5472C29.3118 11.1644 29.1182 10.6563 29.1182 10.0228V9.54428ZM30.0615 10.0706C30.0615 10.4261 30.1618 10.7201 30.3623 10.9525C30.5628 11.1803 30.8317 11.2943 31.1689 11.2943C31.4925 11.2943 31.7523 11.1826 31.9482 10.9593C32.1488 10.736 32.249 10.4307 32.249 10.0433V9.54428C32.249 9.18881 32.151 8.89487 31.9551 8.66245C31.7591 8.43002 31.4925 8.31381 31.1553 8.31381C30.818 8.31381 30.5514 8.43002 30.3555 8.66245C30.1595 8.89487 30.0615 9.19793 30.0615 9.57162V10.0706ZM33.9648 15.1429C33.9648 14.5459 34.154 14.056 34.5322 13.6732C34.915 13.2858 35.4049 13.0921 36.002 13.0921C36.599 13.0921 37.0889 13.2835 37.4717 13.6664C37.8545 14.0492 38.0459 14.5573 38.0459 15.1908V15.6761C38.0459 16.2731 37.8545 16.7653 37.4717 17.1527C37.0934 17.5355 36.6081 17.7269 36.0156 17.7269C35.4232 17.7269 34.9333 17.5378 34.5459 17.1595C34.1585 16.7767 33.9648 16.2686 33.9648 15.6351V15.1429ZM34.9082 15.6761C34.9082 16.0361 35.0085 16.3324 35.209 16.5648C35.4095 16.7927 35.6784 16.9066 36.0156 16.9066C36.3438 16.9066 36.6058 16.7949 36.8018 16.5716C36.9977 16.3438 37.0957 16.0361 37.0957 15.6488V15.1429C37.0957 14.7829 36.9954 14.4889 36.7949 14.2611C36.599 14.0332 36.3346 13.9193 36.002 13.9193C35.6784 13.9193 35.4141 14.0332 35.209 14.2611C35.0085 14.4844 34.9082 14.7874 34.9082 15.1703V15.6761ZM31.4561 16.8314L30.7383 16.3802L35.5986 8.60092L36.3164 9.05209L31.4561 16.8314Z" fill="white"/>
<path d="M45.834 15.5833L50.4173 11L55.0007 15.5833" stroke="white"/>
</svg>
