<svg width="488" height="422" viewBox="0 0 488 422" fill="none" xmlns="http://www.w3.org/2000/svg">
<g opacity="0.8">
<path opacity="0.8" d="M250.972 142.691C297.963 142.691 336.058 113.198 336.058 76.8172C336.058 40.4362 297.963 10.9436 250.972 10.9436C203.98 10.9436 165.885 40.4362 165.885 76.8172C165.885 113.198 203.98 142.691 250.972 142.691Z" fill="url(#paint0_linear)"/>
</g>
<path d="M250.972 141.228C296.921 141.228 334.17 112.39 334.17 76.8172C334.17 41.2443 296.921 12.4067 250.972 12.4067C205.023 12.4067 167.773 41.2443 167.773 76.8172C167.773 112.39 205.023 141.228 250.972 141.228Z" fill="#565472"/>
<path opacity="0.1" d="M181.222 83.9759C181.222 48.4032 218.467 19.5654 264.415 19.5654C278.68 19.4869 292.803 22.4004 305.872 28.1175C291.249 18.2475 272.118 12.25 251.181 12.25C205.233 12.25 167.982 41.0878 167.982 76.6605C167.982 100.546 184.778 121.395 209.73 132.519C192.26 120.71 181.222 103.344 181.222 83.9759Z" fill="white"/>
<path opacity="0.2" d="M250.971 102.706L343.203 262.356L435.435 422H66.5073L158.739 262.356L250.971 102.706Z" fill="#EDEDF4"/>
<g opacity="0.3">
<path opacity="0.3" d="M272.856 328.74L280.019 307.496C282.482 300.098 282.502 292.105 280.075 284.695C277.649 277.285 272.904 270.85 266.541 266.338L266.599 266.304C263.782 264.321 260.692 262.757 257.426 261.659L257.327 261.624L257.217 261.589C254.047 260.518 250.742 259.896 247.399 259.743C246.216 259.682 245.031 259.682 243.849 259.743C241.797 259.85 239.759 260.132 237.755 260.585C237.174 260.713 236.593 260.858 236.064 261.014C235.536 261.171 234.943 261.34 234.391 261.52C233.287 261.885 232.201 262.298 231.138 262.768C230.603 263 230.075 263.244 229.558 263.505C227.994 264.277 226.489 265.162 225.055 266.153C224.573 266.484 224.102 266.826 223.638 267.175C217.895 271.539 213.596 277.526 211.298 284.36L200.039 317.831C198.267 323.08 197.735 328.668 198.482 334.157C198.599 334.999 198.744 335.835 198.912 336.665C199.081 337.495 199.29 338.314 199.493 339.127C199.65 339.667 199.813 340.207 199.993 340.741C200.26 341.536 200.574 342.332 200.87 343.11C201.085 343.626 201.312 344.143 201.55 344.654C202.02 345.67 202.543 346.663 203.107 347.632C203.667 348.609 204.28 349.555 204.943 350.466C205.431 351.151 205.948 351.824 206.482 352.475C207.194 353.354 207.954 354.194 208.759 354.988C212.229 358.485 216.382 361.23 220.959 363.053L221.157 363.134C221.403 362.698 221.674 362.278 221.97 361.874C223.713 359.488 226.746 357.81 229.633 358.437C229.842 358.484 230.051 358.547 230.26 358.611C231.724 359.128 233.165 360.051 234.577 360.504C235.09 360.735 235.648 360.85 236.211 360.843C236.774 360.836 237.329 360.707 237.836 360.463C240.66 358.96 239.614 354.216 242.036 352.138C242.149 352.042 242.267 351.953 242.391 351.871C242.356 351.829 242.325 351.784 242.298 351.737C244.168 350.576 246.76 351.348 248.915 352.097C251.239 352.916 254.271 353.467 255.886 351.569C256.979 350.268 256.897 348.288 257.937 346.924C259.145 345.356 261.423 345.182 263.392 345.461L263.491 345.49C267.267 347.046 271.392 344.462 271.101 340.392C270.955 336.433 271.55 332.481 272.856 328.74Z" fill="url(#paint1_linear)"/>
</g>
<path d="M222.627 360.086C224.323 357.764 227.234 356.138 230.022 356.771C232.811 357.404 235.454 360.057 237.935 358.728C241.327 356.916 238.922 350.257 244.43 349.763C245.577 349.688 246.727 349.887 247.782 350.344C250.106 351.29 253.742 352.359 255.532 350.228C256.583 348.974 256.508 347.064 257.513 345.763C258.675 344.254 260.888 344.062 262.776 344.352L262.869 344.381C266.512 345.885 270.497 343.388 270.212 339.464C269.846 334.238 271.508 329.315 271.868 328.247L278.77 307.746C281.705 298.958 281.04 289.365 276.92 281.065C272.8 272.766 265.559 266.433 256.781 263.453C247.988 260.523 238.391 261.19 230.089 265.309C221.787 269.428 215.453 276.663 212.472 285.434L201.59 317.674C198.762 326.153 199.281 335.392 203.041 343.502C206.801 351.611 213.518 357.98 221.819 361.305C222.064 360.884 222.334 360.476 222.627 360.086Z" fill="white"/>
<path opacity="0.2" d="M235.489 285.991C237.578 285.991 239.271 284.299 239.271 282.212C239.271 280.124 237.578 278.432 235.489 278.432C233.4 278.432 231.707 280.124 231.707 282.212C231.707 284.299 233.4 285.991 235.489 285.991Z" fill="black"/>
<path opacity="0.2" d="M256.996 293.22C259.085 293.22 260.778 291.528 260.778 289.44C260.778 287.353 259.085 285.661 256.996 285.661C254.907 285.661 253.214 287.353 253.214 289.44C253.214 291.528 254.907 293.22 256.996 293.22Z" fill="black"/>
<path d="M245.02 301.396C246.019 298.429 245.224 295.484 243.244 294.818C241.264 294.152 238.849 296.017 237.85 298.984C236.851 301.951 237.646 304.896 239.626 305.562C241.606 306.228 244.021 304.362 245.02 301.396Z" fill="#E0E0E0"/>
<path d="M320.994 288.714C324.125 288.714 326.664 286.177 326.664 283.048C326.664 279.918 324.125 277.381 320.994 277.381C317.862 277.381 315.324 279.918 315.324 283.048C315.324 286.177 317.862 288.714 320.994 288.714Z" fill="white"/>
<path d="M338.957 276.969C340.522 276.969 341.792 275.701 341.792 274.136C341.792 272.571 340.522 271.303 338.957 271.303C337.391 271.303 336.122 272.571 336.122 274.136C336.122 275.701 337.391 276.969 338.957 276.969Z" fill="white"/>
<g opacity="0.5">
<g opacity="0.3">
<path opacity="0.3" d="M280.408 100.569L287.571 79.3253C290.035 71.9272 290.054 63.9339 287.628 56.5238C285.201 49.1136 280.456 42.6786 274.093 38.1673L274.151 38.1325C271.334 36.1502 268.244 34.5857 264.978 33.4878L264.879 33.453L264.769 33.4181C261.599 32.3466 258.294 31.7251 254.951 31.5719C253.768 31.5109 252.584 31.5109 251.401 31.5719C249.35 31.6792 247.311 31.9608 245.307 32.4137C244.726 32.5414 244.145 32.6866 243.616 32.8434C243.088 33.0001 242.495 33.1685 241.943 33.3485C240.84 33.7142 239.753 34.1265 238.69 34.5967C238.156 34.829 237.627 35.0728 237.11 35.3341C235.546 36.1055 234.042 36.9904 232.607 37.9816C232.125 38.3125 231.655 38.655 231.19 39.0034C225.447 43.3676 221.149 49.3546 218.85 56.1888L207.592 89.6597C205.82 94.9089 205.287 100.497 206.035 105.986C206.151 106.828 206.296 107.664 206.465 108.494C206.633 109.324 206.842 110.143 207.046 110.956C207.202 111.496 207.365 112.036 207.545 112.57C207.812 113.365 208.126 114.161 208.422 114.939C208.637 115.455 208.864 115.972 209.102 116.483C209.573 117.499 210.096 118.492 210.659 119.461C211.22 120.438 211.833 121.384 212.495 122.295C212.983 122.98 213.5 123.653 214.034 124.303C214.755 125.174 215.51 126.016 216.312 126.817C219.782 130.314 223.934 133.059 228.512 134.882L228.709 134.963C228.955 134.527 229.227 134.107 229.523 133.703C231.265 131.317 234.298 129.639 237.185 130.266C237.394 130.313 237.604 130.376 237.813 130.44C239.277 130.957 240.718 131.88 242.129 132.333C242.643 132.564 243.2 132.679 243.763 132.672C244.326 132.665 244.881 132.536 245.388 132.292C248.212 130.789 247.166 126.045 249.589 123.967C249.701 123.871 249.82 123.782 249.943 123.7C249.909 123.657 249.878 123.613 249.85 123.566C251.721 122.405 254.312 123.177 256.467 123.926C258.791 124.745 261.824 125.296 263.439 123.398C264.531 122.097 264.449 120.117 265.489 118.753C266.698 117.185 268.975 117.011 270.944 117.29H271.043C274.819 118.846 278.944 116.262 278.654 112.192C278.311 106.793 280.019 101.678 280.408 100.569Z" fill="url(#paint2_linear)"/>
</g>
<path opacity="0.5" d="M230.179 131.915C231.875 129.593 234.786 127.967 237.574 128.6C240.363 129.233 243.006 131.886 245.487 130.556C248.88 128.745 246.475 122.086 251.982 121.592C253.13 121.516 254.279 121.715 255.334 122.173C257.658 123.119 261.295 124.187 263.084 122.056C264.135 120.802 264.06 118.892 265.065 117.592C266.227 116.082 268.44 115.891 270.328 116.181L270.421 116.21C274.064 117.714 278.049 115.217 277.765 111.292C277.399 106.067 279.06 101.144 279.42 100.075L286.322 79.5749C289.258 70.7864 288.593 61.194 284.472 52.8942C280.352 44.5943 273.111 38.2622 264.333 35.2818C255.54 32.3518 245.944 33.0191 237.641 37.1378C229.339 41.2565 223.005 48.4918 220.024 57.2628L209.143 89.5029C206.314 97.9821 206.833 107.221 210.593 115.33C214.353 123.44 221.07 129.808 229.371 133.134C229.616 132.712 229.886 132.305 230.179 131.915Z" fill="white"/>
<path opacity="0.2" d="M243.041 57.8203C245.13 57.8203 246.823 56.1281 246.823 54.0406C246.823 51.9532 245.13 50.261 243.041 50.261C240.953 50.261 239.259 51.9532 239.259 54.0406C239.259 56.1281 240.953 57.8203 243.041 57.8203Z" fill="black"/>
<path opacity="0.2" d="M264.548 65.0485C266.637 65.0485 268.33 63.3563 268.33 61.2689C268.33 59.1815 266.637 57.4893 264.548 57.4893C262.459 57.4893 260.766 59.1815 260.766 61.2689C260.766 63.3563 262.459 65.0485 264.548 65.0485Z" fill="black"/>
</g>
<path opacity="0.1" d="M330.864 57.7273C331.944 61.899 332.489 66.1911 332.485 70.5002C332.485 106.073 295.24 134.911 249.293 134.911C211.688 134.887 179.915 115.577 169.638 89.0791C177.272 118.556 210.886 140.751 251.21 140.751C297.157 140.751 334.408 111.914 334.408 76.341C334.396 69.9701 333.194 63.6574 330.864 57.7273Z" fill="black"/>
<g opacity="0.8">
<path opacity="0.8" d="M250.972 149.844C346.001 149.844 423.038 129.722 423.038 104.9C423.038 80.0789 346.001 59.957 250.972 59.957C155.942 59.957 78.9053 80.0789 78.9053 104.9C78.9053 129.722 155.942 149.844 250.972 149.844Z" fill="url(#paint3_linear)"/>
</g>
<path d="M250.972 61.4431C159.077 61.4431 84.5752 80.8986 84.5752 104.906H417.368C417.368 80.8986 342.867 61.4431 250.972 61.4431Z" fill="white"/>
<path d="M250.972 148.363C342.867 148.363 417.368 128.908 417.368 104.906H84.5752C84.5752 128.908 159.077 148.363 250.972 148.363Z" fill="white"/>
<path opacity="0.05" d="M250.972 148.363C342.867 148.363 417.368 128.908 417.368 104.906H84.5752C84.5752 128.908 159.077 148.363 250.972 148.363Z" fill="black"/>
<path opacity="0.05" d="M320.383 93.5613H181.559C176.034 93.5613 171.555 98.0374 171.555 103.559V106.241C171.555 111.763 176.034 116.239 181.559 116.239H320.383C325.909 116.239 330.387 111.763 330.387 106.241V103.559C330.387 98.0374 325.909 93.5613 320.383 93.5613Z" fill="black"/>
<path opacity="0.5" d="M77.7835 33.5632C77.3035 33.3539 76.9171 32.9758 76.6976 32.5006C76.4781 32.0255 76.4407 31.4863 76.5926 30.9854C76.617 30.9081 76.6326 30.8282 76.6391 30.7474C76.6539 30.5176 76.594 30.2892 76.4684 30.0962C76.3428 29.9032 76.1582 29.7559 75.942 29.6763C75.7258 29.5966 75.4897 29.5889 75.2688 29.6543C75.0479 29.7197 74.854 29.8546 74.7161 30.0391C74.6696 30.1041 74.6306 30.1742 74.5999 30.2481C74.3915 30.7286 74.0133 31.1156 73.5375 31.3351C73.0617 31.5546 72.5216 31.5914 72.0205 31.4383C71.9429 31.4145 71.8631 31.399 71.7823 31.3918C71.5524 31.377 71.3238 31.4368 71.1307 31.5624C70.9376 31.6879 70.7902 31.8724 70.7105 32.0885C70.6308 32.3045 70.6231 32.5405 70.6885 32.7612C70.7539 32.982 70.889 33.1757 71.0735 33.3136C71.1377 33.3631 71.208 33.4041 71.2827 33.4355C71.7627 33.6448 72.1491 34.023 72.3686 34.4981C72.5881 34.9733 72.6255 35.5125 72.4736 36.0133C72.4498 36.0888 72.4342 36.1667 72.4271 36.2456C72.4109 36.4758 72.4697 36.7052 72.5948 36.8993C72.7199 37.0933 72.9046 37.2417 73.1211 37.3221C73.3376 37.4025 73.5744 37.4106 73.796 37.3453C74.0175 37.28 74.2119 37.1447 74.3501 36.9597C74.3978 36.8933 74.4369 36.8211 74.4663 36.7449C74.6799 36.2697 75.0603 35.8891 75.5355 35.6751C76.0108 35.4612 76.5481 35.4287 77.0457 35.5837C77.1233 35.6074 77.2031 35.623 77.2839 35.6301C77.5138 35.645 77.7424 35.5852 77.9355 35.4596C78.1286 35.3341 78.276 35.1496 78.3557 34.9335C78.4354 34.7175 78.4431 34.4815 78.3777 34.2607C78.3122 34.04 78.1772 33.8462 77.9927 33.7084C77.9298 33.6508 77.8595 33.6019 77.7835 33.5632Z" fill="white"/>
<path opacity="0.5" d="M373.488 211.223C373.014 211.009 372.634 210.629 372.42 210.154C372.206 209.679 372.173 209.143 372.326 208.646C372.351 208.568 372.366 208.488 372.373 208.408C372.388 208.178 372.328 207.949 372.202 207.756C372.077 207.563 371.892 207.416 371.676 207.336C371.46 207.257 371.224 207.249 371.003 207.314C370.782 207.38 370.588 207.515 370.45 207.699C370.403 207.764 370.364 207.834 370.334 207.908C370.125 208.389 369.747 208.776 369.271 208.995C368.796 209.215 368.256 209.252 367.754 209.098C367.677 209.075 367.597 209.059 367.516 209.052C367.286 209.037 367.058 209.097 366.865 209.223C366.671 209.348 366.524 209.533 366.444 209.749C366.365 209.965 366.357 210.201 366.422 210.421C366.488 210.642 366.623 210.836 366.807 210.974C366.872 211.023 366.942 211.064 367.017 211.096C367.491 211.31 367.871 211.69 368.085 212.165C368.299 212.64 368.332 213.176 368.178 213.673C368.155 213.749 368.139 213.827 368.132 213.906C368.116 214.136 368.175 214.365 368.3 214.559C368.425 214.753 368.609 214.902 368.826 214.982C369.042 215.063 369.279 215.071 369.501 215.005C369.722 214.94 369.917 214.805 370.055 214.62C370.103 214.553 370.142 214.481 370.171 214.405C370.385 213.93 370.765 213.549 371.24 213.335C371.716 213.121 372.253 213.089 372.751 213.244C372.828 213.268 372.908 213.283 372.989 213.29C373.219 213.305 373.447 213.245 373.64 213.12C373.833 212.994 373.981 212.81 374.06 212.594C374.14 212.378 374.148 212.142 374.082 211.921C374.017 211.7 373.882 211.506 373.697 211.369C373.635 211.311 373.564 211.262 373.488 211.223Z" fill="white"/>
<path opacity="0.5" d="M46.9935 293.667C46.5135 293.458 46.1271 293.079 45.9076 292.604C45.688 292.129 45.6507 291.59 45.8025 291.089C45.8269 291.012 45.8425 290.932 45.849 290.851C45.8638 290.621 45.804 290.393 45.6784 290.2C45.5528 290.007 45.3681 289.86 45.152 289.78C44.9358 289.7 44.6997 289.693 44.4788 289.758C44.2579 289.823 44.064 289.958 43.9261 290.143C43.8795 290.208 43.8405 290.278 43.8099 290.352C43.6014 290.832 43.2232 291.219 42.7474 291.439C42.2716 291.658 41.7316 291.695 41.2304 291.542C41.1529 291.518 41.073 291.503 40.9922 291.495C40.7623 291.481 40.5338 291.54 40.3406 291.666C40.1475 291.792 40.0001 291.976 39.9205 292.192C39.8408 292.408 39.8331 292.644 39.8985 292.865C39.9639 293.086 40.0989 293.279 40.2835 293.417C40.3476 293.467 40.4179 293.508 40.4926 293.539C40.9726 293.748 41.359 294.127 41.5785 294.602C41.7981 295.077 41.8354 295.616 41.6836 296.117C41.6598 296.192 41.6442 296.27 41.6371 296.349C41.6209 296.579 41.6797 296.809 41.8048 297.003C41.9299 297.197 42.1145 297.345 42.3311 297.426C42.5476 297.506 42.7844 297.514 43.0059 297.449C43.2275 297.384 43.4219 297.248 43.5601 297.063C43.6078 296.997 43.6468 296.925 43.6762 296.848C43.8898 296.373 44.2702 295.993 44.7455 295.779C45.2208 295.565 45.758 295.532 46.2557 295.687C46.3332 295.711 46.4131 295.727 46.4939 295.734C46.7238 295.749 46.9523 295.689 47.1455 295.563C47.3386 295.438 47.486 295.253 47.5657 295.037C47.6453 294.821 47.653 294.585 47.5876 294.364C47.5222 294.144 47.3872 293.95 47.2026 293.812C47.1398 293.754 47.0695 293.706 46.9935 293.667Z" fill="white"/>
<path opacity="0.5" d="M15.0411 101.492C14.5664 101.278 14.1864 100.897 13.9725 100.423C13.7585 99.9482 13.7254 99.4118 13.8792 98.9144C13.9036 98.837 13.9192 98.7572 13.9257 98.6763C13.9405 98.4466 13.8806 98.2182 13.755 98.0252C13.6294 97.8321 13.4448 97.6849 13.2286 97.6052C13.0124 97.5256 12.7763 97.5179 12.5554 97.5833C12.3345 97.6487 12.1406 97.7836 12.0027 97.968C11.9562 98.0331 11.9172 98.1032 11.8865 98.177C11.6781 98.6576 11.2999 99.0445 10.8241 99.2641C10.3483 99.4836 9.80826 99.5203 9.3071 99.3672C9.22954 99.3435 9.14971 99.3279 9.06891 99.3208C8.839 99.306 8.61045 99.3658 8.41731 99.4913C8.22418 99.6169 8.07679 99.8014 7.99711 100.017C7.91743 100.233 7.90973 100.469 7.97515 100.69C8.04057 100.911 8.17561 101.105 8.36014 101.243C8.42432 101.292 8.49461 101.333 8.56929 101.364C9.04927 101.574 9.43568 101.952 9.6552 102.427C9.87473 102.902 9.91211 103.441 9.76024 103.942C9.73641 104.018 9.72082 104.096 9.71376 104.175C9.69752 104.405 9.75634 104.634 9.88145 104.828C10.0065 105.022 10.1912 105.171 10.4077 105.251C10.6243 105.331 10.861 105.34 11.0826 105.274C11.3041 105.209 11.4985 105.074 11.6367 104.889C11.6845 104.822 11.7235 104.75 11.7529 104.674C11.9665 104.199 12.3469 103.818 12.8222 103.604C13.2974 103.39 13.8347 103.358 14.3323 103.513C14.4099 103.536 14.4897 103.552 14.5705 103.559C14.8004 103.574 15.029 103.514 15.2221 103.389C15.4153 103.263 15.5626 103.078 15.6423 102.862C15.722 102.646 15.7297 102.41 15.6643 102.19C15.5989 101.969 15.4638 101.775 15.2793 101.637C15.2075 101.577 15.1273 101.528 15.0411 101.492Z" fill="white"/>
<path opacity="0.5" d="M367.679 3.95338C367.204 3.73893 366.824 3.35867 366.61 2.884C366.396 2.40934 366.363 1.87295 366.517 1.37557C366.542 1.29822 366.557 1.21837 366.564 1.13753C366.578 0.90776 366.519 0.679354 366.393 0.48634C366.267 0.293326 366.083 0.146033 365.867 0.0664067C365.65 -0.01322 365.414 -0.020918 365.193 0.0444583C364.972 0.109835 364.779 0.244786 364.641 0.429208C364.594 0.494256 364.555 0.564376 364.524 0.63822C364.311 1.11343 363.931 1.49398 363.455 1.70794C362.98 1.9219 362.443 1.95443 361.945 1.7994C361.868 1.77565 361.788 1.76008 361.707 1.75295C361.456 1.70045 361.195 1.73946 360.971 1.8629C360.747 1.98633 360.575 2.186 360.486 2.42563C360.396 2.66526 360.396 2.92895 360.485 3.16881C360.573 3.40866 360.745 3.60876 360.969 3.73276C361.033 3.78224 361.104 3.82322 361.178 3.85468C361.653 4.06913 362.033 4.44939 362.247 4.92405C362.461 5.39872 362.494 5.93511 362.34 6.43249C362.316 6.508 362.301 6.58587 362.294 6.66473C362.269 6.9038 362.326 7.14416 362.455 7.34697C362.584 7.54978 362.778 7.70319 363.005 7.7824C363.232 7.86161 363.479 7.862 363.706 7.78351C363.933 7.70502 364.128 7.55222 364.257 7.34982C364.305 7.28346 364.344 7.21127 364.373 7.135C364.587 6.65979 364.967 6.27924 365.443 6.06528C365.918 5.85133 366.455 5.81879 366.953 5.97383C367.03 5.99758 367.11 6.01314 367.191 6.02028C367.421 6.03509 367.649 5.97528 367.843 5.84975C368.036 5.72422 368.183 5.5397 368.263 5.32366C368.343 5.10762 368.35 4.87164 368.285 4.65088C368.219 4.43011 368.084 4.23637 367.9 4.09853C367.833 4.04001 367.759 3.99114 367.679 3.95338Z" fill="white"/>
<g opacity="0.5">
<path opacity="0.5" d="M65.6477 149.704H63.9048V159.574H65.6477V149.704Z" fill="white"/>
<path opacity="0.5" d="M69.7139 155.51V153.768H59.8377V155.51H69.7139Z" fill="white"/>
</g>
<g opacity="0.5">
<path opacity="0.5" d="M483.933 103.257H482.19V113.127H483.933V103.257Z" fill="white"/>
<path opacity="0.5" d="M488 109.063V107.321H478.124V109.063H488Z" fill="white"/>
</g>
<g opacity="0.5">
<path opacity="0.5" d="M425.838 265.241H424.095V275.111H425.838V265.241Z" fill="white"/>
<path opacity="0.5" d="M429.904 271.047V269.305H420.028V271.047H429.904Z" fill="white"/>
</g>
<path opacity="0.5" d="M420.029 51.0042C421.954 51.0042 423.514 49.4445 423.514 47.5206C423.514 45.5967 421.954 44.0371 420.029 44.0371C418.104 44.0371 416.543 45.5967 416.543 47.5206C416.543 49.4445 418.104 51.0042 420.029 51.0042Z" fill="white"/>
<path opacity="0.5" d="M3.48571 10.9436C5.41082 10.9436 6.97143 9.38399 6.97143 7.46009C6.97143 5.53619 5.41082 3.97656 3.48571 3.97656C1.56061 3.97656 0 5.53619 0 7.46009C0 9.38399 1.56061 10.9436 3.48571 10.9436Z" fill="white"/>
<path opacity="0.5" d="M108.057 211.247C109.982 211.247 111.543 209.687 111.543 207.763C111.543 205.839 109.982 204.28 108.057 204.28C106.132 204.28 104.571 205.839 104.571 207.763C104.571 209.687 106.132 211.247 108.057 211.247Z" fill="white"/>
<path opacity="0.05" d="M135.943 93.7239C146.852 93.7239 155.695 91.9044 155.695 89.6598C155.695 87.4153 146.852 85.5957 135.943 85.5957C125.034 85.5957 116.19 87.4153 116.19 89.6598C116.19 91.9044 125.034 93.7239 135.943 93.7239Z" fill="black"/>
<path opacity="0.05" d="M135.943 124.495C146.852 124.495 155.695 122.675 155.695 120.431C155.695 118.186 146.852 116.367 135.943 116.367C125.034 116.367 116.19 118.186 116.19 120.431C116.19 122.675 125.034 124.495 135.943 124.495Z" fill="black"/>
<path opacity="0.05" d="M360.771 93.7239C371.68 93.7239 380.524 91.9044 380.524 89.6598C380.524 87.4153 371.68 85.5957 360.771 85.5957C349.862 85.5957 341.019 87.4153 341.019 89.6598C341.019 91.9044 349.862 93.7239 360.771 93.7239Z" fill="black"/>
<path opacity="0.05" d="M360.771 124.495C371.68 124.495 380.524 122.675 380.524 120.431C380.524 118.186 371.68 116.367 360.771 116.367C349.862 116.367 341.019 118.186 341.019 120.431C341.019 122.675 349.862 124.495 360.771 124.495Z" fill="black"/>
<path opacity="0.05" d="M250.972 76.3062C261.881 76.3062 270.724 74.4866 270.724 72.2421C270.724 69.9975 261.881 68.178 250.972 68.178C240.063 68.178 231.219 69.9975 231.219 72.2421C231.219 74.4866 240.063 76.3062 250.972 76.3062Z" fill="black"/>
<path opacity="0.05" d="M265.495 33.9232C276.404 33.9232 285.247 32.1036 285.247 29.859C285.247 27.6145 276.404 25.7949 265.495 25.7949C254.586 25.7949 245.743 27.6145 245.743 29.859C245.743 32.1036 254.586 33.9232 265.495 33.9232Z" fill="black"/>
<path opacity="0.05" d="M227.733 51.3409C238.642 51.3409 247.486 49.5213 247.486 47.2768C247.486 45.0322 238.642 43.2126 227.733 43.2126C216.824 43.2126 207.981 45.0322 207.981 47.2768C207.981 49.5213 216.824 51.3409 227.733 51.3409Z" fill="black"/>
<path opacity="0.05" d="M300.352 58.8885C311.261 58.8885 320.105 57.0689 320.105 54.8244C320.105 52.5798 311.261 50.7603 300.352 50.7603C289.444 50.7603 280.6 52.5798 280.6 54.8244C280.6 57.0689 289.444 58.8885 300.352 58.8885Z" fill="black"/>
<path opacity="0.05" d="M250.972 136.687C261.881 136.687 270.724 134.868 270.724 132.623C270.724 130.379 261.881 128.559 250.972 128.559C240.063 128.559 231.219 130.379 231.219 132.623C231.219 134.868 240.063 136.687 250.972 136.687Z" fill="black"/>
<defs>
<linearGradient id="paint0_linear" x1="250.972" y1="142.691" x2="250.972" y2="10.9436" gradientUnits="userSpaceOnUse">
<stop stop-color="#808080" stop-opacity="0.251"/>
<stop offset="0.54" stop-color="#808080" stop-opacity="0.122"/>
<stop offset="1" stop-color="#808080" stop-opacity="0.102"/>
</linearGradient>
<linearGradient id="paint1_linear" x1="155.285" y1="1062.16" x2="155.285" y2="954.483" gradientUnits="userSpaceOnUse">
<stop stop-color="#808080" stop-opacity="0.251"/>
<stop offset="0.54" stop-color="#808080" stop-opacity="0.122"/>
<stop offset="1" stop-color="#808080" stop-opacity="0.102"/>
</linearGradient>
<linearGradient id="paint2_linear" x1="89.66" y1="843.506" x2="89.66" y2="735.828" gradientUnits="userSpaceOnUse">
<stop stop-color="#808080" stop-opacity="0.251"/>
<stop offset="0.54" stop-color="#808080" stop-opacity="0.122"/>
<stop offset="1" stop-color="#808080" stop-opacity="0.102"/>
</linearGradient>
<linearGradient id="paint3_linear" x1="250.972" y1="149.844" x2="250.972" y2="59.957" gradientUnits="userSpaceOnUse">
<stop stop-color="#808080" stop-opacity="0.251"/>
<stop offset="0.54" stop-color="#808080" stop-opacity="0.122"/>
<stop offset="1" stop-color="#808080" stop-opacity="0.102"/>
</linearGradient>
</defs>
</svg>
