<svg width="544" height="340" viewBox="0 0 544 340" fill="none" xmlns="http://www.w3.org/2000/svg">
<path d="M142.174 207.21C199.332 207.21 245.667 160.825 245.667 103.605C245.667 46.3856 199.332 0 142.174 0C85.0162 0 38.6807 46.3856 38.6807 103.605C38.6807 160.825 85.0162 207.21 142.174 207.21Z" fill="#F2F2F2"/>
<path d="M0 24.8762C0 62.5718 23.6227 93.0747 52.8159 93.0747L0 24.8762Z" fill="#283047"/>
<path d="M52.8159 93.0747C52.8159 54.9555 79.1776 24.1099 111.755 24.1099L52.8159 93.0747Z" fill="#3260ED"/>
<path d="M19.1362 28.2933C19.1362 64.1002 34.2 93.0746 52.8159 93.0746L19.1362 28.2933Z" fill="#3260ED"/>
<path d="M52.8159 93.0747C52.8159 44.3668 83.2858 4.95294 120.941 4.95294L52.8159 93.0747Z" fill="#283047"/>
<path d="M41.7046 93.5555C41.7046 93.5555 49.1948 93.3245 51.4521 91.7154C53.7095 90.1062 62.9739 88.1848 63.5339 90.7655C64.0939 93.3463 74.7902 103.601 66.3338 103.669C57.8775 103.738 46.685 102.351 44.432 100.977C42.179 99.6029 41.7046 93.5555 41.7046 93.5555Z" fill="#A8A8A8"/>
<path opacity="0.2" d="M66.4848 102.771C58.0284 102.839 46.8359 101.452 44.5829 100.078C42.8671 99.0321 42.1834 95.2778 41.9546 93.5457C41.7962 93.5525 41.7046 93.5555 41.7046 93.5555C41.7046 93.5555 42.179 99.6029 44.432 100.977C46.685 102.351 57.8775 103.738 66.3338 103.669C68.7749 103.65 69.618 102.78 69.5717 101.492C69.2326 102.27 68.3016 102.756 66.4848 102.771Z" fill="black"/>
<path d="M96.5009 218.855C146.682 218.855 187.361 213.315 187.361 206.481C187.361 199.647 146.682 194.106 96.5009 194.106C46.3202 194.106 5.64062 199.647 5.64062 206.481C5.64062 213.315 46.3202 218.855 96.5009 218.855Z" fill="#283047"/>
<path opacity="0.1" d="M96.5011 216.87C138.631 216.87 172.785 212.218 172.785 206.481C172.785 200.743 138.631 196.092 96.5011 196.092C54.3707 196.092 20.2173 200.743 20.2173 206.481C20.2173 212.218 54.3707 216.87 96.5011 216.87Z" fill="black"/>
<path d="M406.495 340C482.437 340 544 331.616 544 321.273C544 310.931 482.437 302.547 406.495 302.547C330.553 302.547 268.99 310.931 268.99 321.273C268.99 331.616 330.553 340 406.495 340Z" fill="#354163"/>
<path d="M150.92 325.226C196.539 325.226 233.52 320.19 233.52 313.977C233.52 307.764 196.539 302.728 150.92 302.728C105.301 302.728 68.3198 307.764 68.3198 313.977C68.3198 320.19 105.301 325.226 150.92 325.226Z" fill="#354163"/>
<path d="M224.774 304.492C268.504 315.679 352.562 289.9 361.794 260.715" stroke="#283047" stroke-width="2" stroke-miterlimit="10"/>
<path d="M150.434 125.98C150.434 125.98 213.599 108.469 217.486 164.893C221.373 221.316 165.496 237.368 209.226 248.555" stroke="#283047" stroke-width="2" stroke-miterlimit="10"/>
<path d="M89.4082 261.34C89.4082 261.34 108.393 256.077 109.561 273.035C110.729 289.993 93.9353 294.818 107.078 298.18" stroke="#283047" stroke-width="2" stroke-miterlimit="10"/>
<path d="M378.36 273.965L374.532 298.429C374.532 298.429 355.689 308.45 368.938 308.745C382.187 309.04 444.606 308.745 444.606 308.745C444.606 308.745 456.678 308.745 437.54 298.134L433.712 272.491L378.36 273.965Z" fill="#2F2E41"/>
<path opacity="0.1" d="M366.273 308.48C369.282 305.799 374.533 303.007 374.533 303.007L378.36 278.543L433.713 278.595L437.54 302.712C442.003 305.186 444.768 307.083 446.385 308.538C448.843 307.977 451.529 305.89 437.54 298.134L433.713 272.491L378.36 273.965L374.533 298.429C374.533 298.429 358.699 306.851 366.273 308.48Z" fill="black"/>
<path d="M521.664 103.454H289.819C284.977 103.454 281.051 107.384 281.051 112.231V268.577C281.051 273.425 284.977 277.355 289.819 277.355H521.664C526.507 277.355 530.433 273.425 530.433 268.577V112.231C530.433 107.384 526.507 103.454 521.664 103.454Z" fill="#283047"/>
<path d="M522.041 112.738H289.442V243.017H522.041V112.738Z" fill="#354163"/>
<path d="M405.742 110.085C406.555 110.085 407.214 109.426 407.214 108.612C407.214 107.798 406.555 107.138 405.742 107.138C404.929 107.138 404.27 107.798 404.27 108.612C404.27 109.426 404.929 110.085 405.742 110.085Z" fill="#F2F2F2"/>
<path d="M530.433 253.333V268.577C530.433 269.73 530.206 270.871 529.765 271.936C529.325 273.001 528.679 273.969 527.865 274.784C527.051 275.599 526.084 276.246 525.02 276.687C523.956 277.128 522.816 277.355 521.664 277.355H289.819C288.668 277.355 287.528 277.128 286.464 276.687C285.4 276.246 284.433 275.599 283.619 274.784C282.805 273.969 282.159 273.001 281.718 271.936C281.278 270.871 281.051 269.73 281.051 268.577V253.333H530.433Z" fill="#283047"/>
<path d="M470.811 324.662V327.609H312.408V325.251L312.626 324.662L316.53 314.051H467.572L470.811 324.662Z" fill="#283047"/>
<path d="M531.769 321.776C531.481 323.011 530.391 324.314 527.93 325.546C519.097 329.967 501.137 324.367 501.137 324.367C501.137 324.367 487.299 322.009 487.299 315.819C487.687 315.553 488.093 315.312 488.512 315.097C492.225 313.13 504.538 308.277 526.371 315.302C527.979 315.808 529.416 316.75 530.521 318.025C531.405 319.062 532.099 320.377 531.769 321.776Z" fill="#283047"/>
<path opacity="0.1" d="M531.769 321.776C520.958 325.923 511.321 326.233 501.431 319.356C496.444 315.89 491.912 315.032 488.512 315.097C492.225 313.13 504.538 308.277 526.371 315.302C527.979 315.808 529.416 316.75 530.521 318.025C531.405 319.062 532.099 320.377 531.769 321.776Z" fill="black"/>
<path d="M518.214 319.356C520.328 319.356 522.041 318.828 522.041 318.177C522.041 317.526 520.328 316.998 518.214 316.998C516.1 316.998 514.386 317.526 514.386 318.177C514.386 318.828 516.1 319.356 518.214 319.356Z" fill="#F2F2F2"/>
<path d="M405.742 271.018C408.832 271.018 411.336 268.51 411.336 265.417C411.336 262.324 408.832 259.817 405.742 259.817C402.653 259.817 400.148 262.324 400.148 265.417C400.148 268.51 402.653 271.018 405.742 271.018Z" fill="#F2F2F2"/>
<path opacity="0.1" d="M470.811 324.662V327.609H312.408V325.251L312.626 324.662H470.811Z" fill="black"/>
<path d="M153.835 77.3391H52.7715V195.05H153.835V77.3391Z" fill="#283047"/>
<path d="M164.039 65.6652H42.5679V107.496H164.039V65.6652Z" fill="#354163"/>
<path d="M164.039 115.279H42.5679V157.11H164.039V115.279Z" fill="#354163"/>
<path d="M164.039 164.893H42.5679V206.724H164.039V164.893Z" fill="#354163"/>
<path opacity="0.4" d="M139.489 72.9614H131.715V80.7439H139.489V72.9614Z" fill="#C2D0FB"/>
<path opacity="0.8" d="M150.92 72.9614H143.146V80.7439H150.92V72.9614Z" fill="#6587EF"/>
<path d="M162.095 72.9614H154.321V80.7439H162.095V72.9614Z" fill="#3260ED"/>
<path opacity="0.4" d="M139.489 122.089H131.715V129.871H139.489V122.089Z" fill="#C2D0FB"/>
<path opacity="0.8" d="M150.92 122.089H143.146V129.871H150.92V122.089Z" fill="#6587EF"/>
<path d="M162.095 122.089H154.321V129.871H162.095V122.089Z" fill="#3260ED"/>
<path opacity="0.4" d="M139.489 171.216H131.715V178.999H139.489V171.216Z" fill="#C2D0FB"/>
<path opacity="0.8" d="M150.92 171.216H143.146V178.999H150.92V171.216Z" fill="#6587EF"/>
<path d="M162.095 171.216H154.321V178.999H162.095V171.216Z" fill="#3260ED"/>
<path d="M153.835 300.114C175.035 300.114 192.22 282.91 192.22 261.688C192.22 240.466 175.035 223.262 153.835 223.262C132.636 223.262 115.451 240.466 115.451 261.688C115.451 282.91 132.636 300.114 153.835 300.114Z" fill="#283047"/>
<path d="M148.005 291.846H136.343V312.761H148.005V291.846Z" fill="#2F2E41"/>
<path d="M171.327 291.846H159.666V312.761H171.327V291.846Z" fill="#2F2E41"/>
<path d="M146.061 316.652C151.428 316.652 155.779 315.019 155.779 313.004C155.779 310.989 151.428 309.356 146.061 309.356C140.694 309.356 136.343 310.989 136.343 313.004C136.343 315.019 140.694 316.652 146.061 316.652Z" fill="#2F2E41"/>
<path d="M169.384 316.166C174.751 316.166 179.101 314.533 179.101 312.518C179.101 310.503 174.751 308.87 169.384 308.87C164.017 308.87 159.666 310.503 159.666 312.518C159.666 314.533 164.017 316.166 169.384 316.166Z" fill="#2F2E41"/>
<path d="M154.807 265.093C162.052 265.093 167.926 259.213 167.926 251.96C167.926 244.707 162.052 238.827 154.807 238.827C147.562 238.827 141.688 244.707 141.688 251.96C141.688 259.213 147.562 265.093 154.807 265.093Z" fill="white"/>
<path d="M154.807 256.338C157.222 256.338 159.18 254.378 159.18 251.96C159.18 249.542 157.222 247.582 154.807 247.582C152.392 247.582 150.434 249.542 150.434 251.96C150.434 254.378 152.392 256.338 154.807 256.338Z" fill="#3F3D56"/>
<path d="M116.601 225.953C113.501 212.057 123.409 198.016 138.73 194.592C154.051 191.167 168.983 199.655 172.083 213.551C175.182 227.446 165.028 232.571 149.707 235.996C134.387 239.421 119.7 239.848 116.601 225.953Z" fill="#3260ED"/>
<path d="M189.836 254.024C199.581 249.849 206.419 243.982 205.11 240.919C203.801 237.857 194.84 238.759 185.095 242.934C175.35 247.109 168.512 252.977 169.821 256.039C171.131 259.101 180.092 258.199 189.836 254.024Z" fill="#283047"/>
<path d="M117.926 279.804C127.67 275.629 134.509 269.761 133.199 266.699C131.89 263.636 122.929 264.538 113.184 268.714C103.44 272.889 96.6015 278.756 97.9108 281.819C99.2201 284.881 108.181 283.979 117.926 279.804Z" fill="#283047"/>
<path d="M176.186 272.876C176.186 276.637 166.513 284.063 155.779 284.063C145.045 284.063 134.886 277.123 134.886 273.362C134.886 269.601 145.045 270.444 155.779 270.444C166.513 270.444 176.186 269.115 176.186 272.876Z" fill="white"/>
</svg>
