<svg width="176" height="33" viewBox="0 0 176 33" fill="none" xmlns="http://www.w3.org/2000/svg">
<path d="M14.931 16.038H7.749L6.48 19.332H0L8.262 0.432H14.526L22.788 19.332H16.2L14.931 16.038ZM13.176 11.448L11.34 6.696L9.504 11.448H13.176ZM46.0259 4.293C47.8439 4.293 49.3019 4.842 50.3999 5.94C51.5159 7.038 52.0739 8.694 52.0739 10.908V19.332H45.9719V11.961C45.9719 10.269 45.3689 9.423 44.1629 9.423C43.4789 9.423 42.9209 9.666 42.4889 10.152C42.0749 10.62 41.8679 11.367 41.8679 12.393V19.332H35.7659V4.563H41.5709V6.021C42.1469 5.445 42.8129 5.013 43.5689 4.725C44.3249 4.437 45.1439 4.293 46.0259 4.293ZM77.7549 18.819C76.8369 19.341 75.5859 19.602 74.0019 19.602C71.9319 19.602 70.3389 19.107 69.2229 18.117C68.1069 17.109 67.5489 15.606 67.5489 13.608V9.828H65.5239V5.373H67.5489V1.242H73.6509V5.373H76.6749V9.828H73.6509V13.554C73.6509 14.004 73.7679 14.355 74.0019 14.607C74.2359 14.859 74.5419 14.985 74.9199 14.985C75.4419 14.985 75.9009 14.85 76.2969 14.58L77.7549 18.819ZM104.511 16.038H97.3289L96.0599 19.332H89.5799L97.8419 0.432H104.106L112.368 19.332H105.78L104.511 16.038ZM102.756 11.448L100.92 6.696L99.0839 11.448H102.756ZM135.045 19.764C133.047 19.764 131.247 19.35 129.645 18.522C128.043 17.676 126.783 16.506 125.865 15.012C124.965 13.5 124.515 11.79 124.515 9.882C124.515 7.974 124.965 6.273 125.865 4.779C126.783 3.267 128.043 2.097 129.645 1.269C131.247 0.423 133.047 0 135.045 0C136.881 0 138.519 0.324 139.959 0.972C141.399 1.62 142.587 2.556 143.523 3.78L139.5 7.371C138.33 5.895 136.953 5.157 135.369 5.157C134.037 5.157 132.966 5.589 132.156 6.453C131.346 7.299 130.941 8.442 130.941 9.882C130.941 11.322 131.346 12.474 132.156 13.338C132.966 14.184 134.037 14.607 135.369 14.607C136.953 14.607 138.33 13.869 139.5 12.393L143.523 15.984C142.587 17.208 141.399 18.144 139.959 18.792C138.519 19.44 136.881 19.764 135.045 19.764Z" fill="white"/>
<path d="M175.516 25.332H156.516V32.332H175.516V25.332Z" fill="#009BDC"/>
</svg>
