<svg width="30" height="25" viewBox="0 0 30 25" fill="none" xmlns="http://www.w3.org/2000/svg">
<path d="M27.9678 0.67712C27.6409 0.448403 27.2722 0.286326 26.8827 0.200146C26.4931 0.113966 26.0904 0.105372 25.6976 0.174855C25.3047 0.244338 24.9294 0.390537 24.5931 0.6051C24.2567 0.819663 23.966 1.09839 23.7374 1.42535L12.1885 17.9187L4.6162 12.7462C4.00887 12.3308 3.26139 12.1736 2.53819 12.3093C1.81499 12.445 1.17532 12.8624 0.759884 13.4697C0.344452 14.0771 0.187294 14.8245 0.322983 15.5477C0.458672 16.2709 0.876093 16.9106 1.48342 17.326L11.6337 24.2591C11.9463 24.4724 12.2996 24.619 12.6715 24.6896C13.0433 24.7602 13.4257 24.7534 13.7948 24.6694C14.1885 24.6006 14.5647 24.4548 14.9019 24.2403C15.2391 24.0258 15.5306 23.7468 15.7598 23.4194L28.7165 4.90986C29.1783 4.24892 29.3587 3.43168 29.2183 2.63774C29.0778 1.8438 28.6279 1.1381 27.9673 0.675735" fill="#00316D"/>
</svg>
