<svg width="582" height="364" viewBox="0 0 582 364" fill="none" xmlns="http://www.w3.org/2000/svg">
<path d="M386.83 145.191C387.932 144.934 389.078 144.922 390.186 145.156C391.293 145.389 392.336 145.862 393.241 146.541C394.146 147.221 394.891 148.09 395.423 149.088C395.955 150.085 396.261 151.187 396.321 152.316L422.756 159.951L411.876 169.217L388.44 160.546C386.534 160.52 384.704 159.797 383.297 158.513C381.89 157.23 381.003 155.476 380.804 153.583C380.606 151.69 381.109 149.79 382.22 148.244C383.33 146.697 384.971 145.611 386.83 145.191V145.191Z" fill="#E1A7AF"/>
<path d="M502.887 242.395C502.295 241.432 501.922 240.35 501.794 239.227C501.666 238.104 501.786 236.967 502.145 235.895C502.505 234.823 503.096 233.843 503.876 233.024C504.656 232.205 505.607 231.566 506.66 231.154L505.566 203.699L517.808 211.079L516.971 236.019C517.548 237.833 517.438 239.795 516.663 241.533C515.888 243.272 514.501 244.666 512.765 245.452C511.03 246.238 509.065 246.361 507.245 245.798C505.424 245.234 503.874 244.024 502.887 242.395Z" fill="#E1A7AF"/>
<path d="M519.227 224.597L508.344 226.333C507.887 226.406 507.42 226.387 506.971 226.276C506.521 226.166 506.098 225.967 505.727 225.691C505.356 225.415 505.044 225.068 504.81 224.669C504.575 224.271 504.423 223.83 504.362 223.372L499.758 188.749L477.006 157.661C476.163 156.51 475.566 155.198 475.25 153.807C474.935 152.417 474.908 150.976 475.172 149.575C475.435 148.173 475.984 146.841 476.783 145.659C477.582 144.477 478.615 143.472 479.818 142.704L479.818 142.704C482.155 141.213 484.989 140.709 487.697 141.305C490.406 141.901 492.766 143.546 494.26 145.879L517.497 182.185L522.122 220.769C522.151 221.016 522.155 221.264 522.132 221.511C522.06 222.275 521.736 222.993 521.21 223.552C520.684 224.11 519.986 224.478 519.227 224.597Z" fill="#1C3FAA"/>
<path d="M481.708 353.105H472.267L467.775 316.746L481.709 316.747L481.708 353.105Z" fill="#E1A7AF"/>
<path d="M465.521 350.412H483.729V361.858H454.057C454.057 358.823 455.264 355.911 457.414 353.765C459.564 351.618 462.48 350.412 465.521 350.412Z" fill="#2F2E41"/>
<path d="M521.538 336.971L514.484 343.236L488.189 317.349L497.335 309.804L521.538 336.971Z" fill="#E1A7AF"/>
<path d="M507.654 345.699L521.258 333.616L528.878 342.169L506.708 361.859C505.707 360.736 504.938 359.427 504.444 358.007C503.95 356.587 503.741 355.084 503.828 353.583C503.916 352.083 504.299 350.614 504.956 349.261C505.612 347.909 506.529 346.698 507.654 345.699Z" fill="#2F2E41"/>
<path d="M469.248 118.842C479.694 118.842 488.163 110.387 488.163 99.9574C488.163 89.5275 479.694 81.0724 469.248 81.0724C458.802 81.0724 450.334 89.5275 450.334 99.9574C450.334 110.387 458.802 118.842 469.248 118.842Z" fill="#E1A7AF"/>
<path d="M482.865 346.297L469.724 345.248C468.875 345.18 468.081 344.803 467.493 344.188C466.905 343.573 466.565 342.763 466.537 341.913L462.869 231.32C462.839 230.466 463.128 229.63 463.679 228.976C464.231 228.322 465.006 227.895 465.854 227.779L492.052 224.129C492.592 224.054 493.142 224.107 493.658 224.283C494.173 224.46 494.639 224.756 495.019 225.147C495.398 225.537 495.68 226.012 495.841 226.531C496.003 227.051 496.039 227.602 495.947 228.138L485.922 286.766C485.895 286.927 485.882 287.09 485.884 287.254L486.606 342.803C486.612 343.261 486.527 343.716 486.356 344.141C486.184 344.566 485.929 344.953 485.607 345.279C485.284 345.606 484.9 345.865 484.476 346.041C484.053 346.218 483.598 346.309 483.139 346.309C483.048 346.309 482.956 346.305 482.865 346.297Z" fill="#2F2E41"/>
<path d="M499.696 333.033L454.554 282.872C454.229 282.511 453.984 282.086 453.834 281.624C453.685 281.163 453.634 280.675 453.685 280.192L459.387 226.827C459.48 225.938 459.916 225.119 460.601 224.544C461.287 223.968 462.169 223.681 463.063 223.742L490.768 225.586C491.297 225.621 491.812 225.777 492.271 226.042C492.731 226.308 493.123 226.675 493.418 227.115C493.713 227.556 493.903 228.058 493.972 228.584C494.042 229.109 493.99 229.644 493.82 230.146L477.22 279.177C477.061 279.644 477.034 280.146 477.142 280.628C477.251 281.11 477.49 281.552 477.834 281.907L516.179 321.585C516.543 321.961 516.816 322.414 516.979 322.911C517.142 323.407 517.19 323.934 517.12 324.452C517.049 324.97 516.863 325.465 516.573 325.9C516.284 326.336 515.899 326.7 515.449 326.966L504.037 333.699C503.347 334.104 502.538 334.259 501.747 334.138C500.957 334.017 500.232 333.626 499.696 333.033L499.696 333.033Z" fill="#2F2E41"/>
<path d="M465.859 130.508C465.859 130.508 477.411 120.512 482.801 125.894C482.801 125.894 507.829 141.657 497.048 184.715C497.048 184.715 506.289 226.235 502.439 227.773C498.588 229.311 459.698 235.078 456.618 230.464C453.538 225.851 451.997 155.112 465.859 130.508Z" fill="#1C3FAA"/>
<path d="M398.581 166.292L400.369 155.433C400.444 154.977 400.61 154.541 400.856 154.15C401.103 153.759 401.426 153.422 401.805 153.157C402.185 152.893 402.613 152.707 403.066 152.611C403.518 152.515 403.986 152.51 404.44 152.597L438.796 159.171L475.525 147.438C476.885 147.003 478.32 146.851 479.742 146.992C481.163 147.133 482.54 147.562 483.788 148.255C485.037 148.947 486.13 149.887 487.001 151.018C487.871 152.148 488.501 153.444 488.85 154.827L488.851 154.826C489.529 157.511 489.112 160.355 487.691 162.733C486.269 165.11 483.96 166.827 481.271 167.504L439.43 178.049L401.304 170.243C401.06 170.193 400.823 170.118 400.596 170.018C399.893 169.709 399.313 169.175 398.948 168.5C398.583 167.825 398.454 167.048 398.581 166.292Z" fill="#1C3FAA"/>
<path d="M477.363 115.276C479.091 111.282 480.554 105.963 477.239 103.139C475.316 101.501 472.546 101.497 470.027 101.294C462.928 100.719 455.622 97.4585 452.152 91.249C448.683 85.0395 450.62 75.8062 457.166 73.0046C461.578 71.1162 466.636 72.4026 471.254 73.7102L485.12 77.6362C489.24 78.8027 493.566 80.0891 496.532 83.1734C501.263 88.0922 500.909 96.4074 497.152 102.102C493.395 107.797 487.736 113.736 481.259 115.898L477.363 115.276Z" fill="#2F2E41"/>
<path d="M581.23 363.483H390.247C390.042 363.483 389.847 363.402 389.702 363.258C389.558 363.114 389.477 362.918 389.477 362.715C389.477 362.511 389.558 362.315 389.702 362.171C389.847 362.027 390.042 361.946 390.247 361.946H581.23C581.434 361.946 581.63 362.027 581.775 362.171C581.919 362.315 582 362.511 582 362.715C582 362.918 581.919 363.114 581.775 363.258C581.63 363.402 581.434 363.483 581.23 363.483Z" fill="#3F3D56"/>
<rect x="1" y="1.07837" width="381.654" height="286.672" rx="3" fill="#F7FAFF" stroke="#2D3D69" stroke-width="2"/>
<path d="M381.793 20.8731H1.86328V22.7301H381.793V20.8731Z" fill="#2D3D69"/>
<path d="M167.915 162.931H132.863C132.695 162.931 132.534 162.833 132.416 162.659C132.297 162.485 132.23 162.249 132.23 162.003C132.23 161.756 132.297 161.52 132.416 161.346C132.534 161.172 132.695 161.074 132.863 161.074H167.915C168.083 161.074 168.244 161.172 168.362 161.346C168.481 161.52 168.547 161.756 168.547 162.003C168.547 162.249 168.481 162.485 168.362 162.659C168.244 162.833 168.083 162.931 167.915 162.931Z" fill="#27ACF6"/>
<path d="M192.752 151.664C192.527 151.664 192.311 151.549 192.152 151.346C191.994 151.142 191.904 150.866 191.904 150.577V112.968C191.904 112.68 191.994 112.404 192.152 112.2C192.311 111.996 192.527 111.882 192.752 111.882C192.976 111.882 193.192 111.996 193.351 112.2C193.51 112.404 193.599 112.68 193.599 112.968V150.577C193.599 150.866 193.51 151.142 193.351 151.346C193.192 151.549 192.976 151.664 192.752 151.664Z" fill="#27ACF6"/>
<path d="M101.781 159.217C101.664 159.217 101.55 159.185 101.45 159.125L66.4328 138.156C66.2848 138.067 66.1778 137.922 66.1353 137.753C66.0928 137.584 66.1183 137.406 66.2062 137.256C66.294 137.106 66.437 136.998 66.6039 136.954C66.7708 136.911 66.9479 136.936 67.0963 137.025L102.113 157.994C102.236 158.068 102.331 158.18 102.385 158.313C102.438 158.447 102.447 158.595 102.409 158.734C102.371 158.873 102.289 158.995 102.176 159.083C102.062 159.17 101.923 159.217 101.781 159.217Z" fill="#27ACF6"/>
<path d="M66.7498 187.072C66.6108 187.072 66.4756 187.026 66.3651 186.943C66.2545 186.859 66.1747 186.742 66.1379 186.608C66.1011 186.475 66.1093 186.334 66.1614 186.206C66.2134 186.077 66.3064 185.97 66.4259 185.9L100.544 165.805C100.688 165.719 100.861 165.695 101.024 165.736C101.187 165.778 101.327 165.882 101.412 166.025C101.498 166.169 101.523 166.341 101.481 166.503C101.439 166.665 101.335 166.803 101.19 166.889L67.0724 186.984C66.9748 187.041 66.8633 187.072 66.7498 187.072Z" fill="#27ACF6"/>
<path d="M256.352 162.964H213.663C213.458 162.964 213.263 162.875 213.118 162.716C212.974 162.558 212.893 162.342 212.893 162.118C212.893 161.893 212.974 161.678 213.118 161.519C213.263 161.361 213.458 161.272 213.663 161.272H256.352C256.556 161.272 256.752 161.361 256.896 161.519C257.041 161.678 257.122 161.893 257.122 162.118C257.122 162.342 257.041 162.558 256.896 162.716C256.752 162.875 256.556 162.964 256.352 162.964Z" fill="#27ACF6"/>
<path d="M264.488 162.81C264.319 162.81 264.155 162.754 264.02 162.652C263.886 162.55 263.789 162.407 263.744 162.244C263.7 162.082 263.71 161.909 263.773 161.753C263.836 161.596 263.949 161.465 264.094 161.379L305.537 136.854C305.624 136.803 305.72 136.769 305.82 136.755C305.92 136.74 306.022 136.746 306.12 136.771C306.218 136.796 306.31 136.84 306.391 136.901C306.472 136.961 306.54 137.037 306.592 137.124C306.644 137.211 306.677 137.307 306.692 137.407C306.706 137.507 306.701 137.609 306.676 137.706C306.65 137.804 306.606 137.896 306.546 137.977C306.485 138.058 306.409 138.126 306.322 138.177L264.879 162.702C264.761 162.772 264.626 162.81 264.488 162.81Z" fill="#27ACF6"/>
<path d="M305.929 187.334C305.791 187.334 305.656 187.297 305.537 187.227L264.094 162.702C263.919 162.598 263.791 162.429 263.741 162.231C263.69 162.033 263.72 161.824 263.824 161.648C263.928 161.473 264.098 161.346 264.296 161.296C264.494 161.245 264.704 161.275 264.879 161.379L306.322 185.904C306.467 185.99 306.58 186.121 306.644 186.277C306.707 186.433 306.717 186.606 306.672 186.769C306.628 186.931 306.531 187.075 306.396 187.177C306.262 187.279 306.098 187.334 305.929 187.334V187.334Z" fill="#27ACF6"/>
<path d="M218.765 163.86C218.765 178.688 206.708 190.714 191.829 190.714C176.949 190.714 164.893 178.688 164.893 163.86C164.893 149.031 176.949 137.005 191.829 137.005C206.708 137.005 218.765 149.031 218.765 163.86Z" fill="white" stroke="#27ACF6" stroke-width="2"/>
<rect x="200.5" y="156.433" width="1.30836" height="19.5307" rx="0.654179" fill="#0D5675"/>
<g clip-path="url(#clip0)">
<path d="M201.809 167.173C205.297 163.788 208.787 170.557 212.275 167.173C212.275 165.762 212.275 164.353 212.275 162.942C208.787 166.326 205.297 159.557 201.809 162.942C201.809 164.353 201.809 165.763 201.809 167.173Z" fill="#EDD421"/>
<path d="M201.809 162.941C205.297 159.556 208.787 166.326 212.275 162.941C212.275 161.53 212.275 160.121 212.275 158.71C208.787 162.095 205.297 155.325 201.809 158.71C201.809 160.121 201.809 161.532 201.809 162.941Z" fill="#1072BA"/>
</g>
<path d="M184.078 157.566C184.301 160.438 185.463 159.201 185.703 160.459C186.101 162.551 187.986 164.064 189.159 164.587C189.844 164.891 190.549 165.044 191.29 165.056V165.057C191.292 165.057 191.295 165.057 191.298 165.057C191.3 165.057 191.303 165.057 191.305 165.057V165.056C192.046 165.044 192.751 164.891 193.436 164.587C194.609 164.064 196.494 162.551 196.892 160.459C197.132 159.201 198.294 160.438 198.517 157.566C198.517 156.422 197.882 156.137 197.882 156.137C197.882 156.137 198.205 154.443 198.331 153.14C198.488 151.515 197.366 147.318 191.384 147.318C191.358 147.318 191.334 147.32 191.308 147.32C191.307 147.32 191.306 147.32 191.305 147.32V147.32C191.303 147.32 191.3 147.32 191.298 147.32C191.295 147.32 191.292 147.32 191.29 147.32V147.32C191.289 147.32 191.288 147.32 191.287 147.32C191.262 147.32 191.237 147.318 191.211 147.318C185.229 147.318 184.107 151.515 184.264 153.14C184.39 154.443 184.713 156.137 184.713 156.137C184.713 156.137 184.078 156.422 184.078 157.566Z" fill="#0D5675"/>
<path d="M204.868 171.786C201.851 170.277 197.477 168.393 197.267 168.326C197.265 168.326 197.263 168.325 197.261 168.325C197.138 168.282 197.006 168.258 196.868 168.258C196.356 168.258 195.921 168.581 195.76 169.03L195.757 169.029C194.978 170.873 193.548 174.161 192.659 175.746L192.445 171.302C192.445 171.302 193.779 168.519 193.925 168.264C194.269 167.667 193.959 167.158 193.315 167.158C192.995 167.158 192.196 167.158 191.395 167.158H191.392C191.387 167.158 191.382 167.158 191.377 167.158H191.374C191.363 167.158 191.352 167.158 191.341 167.158C191.33 167.158 191.319 167.158 191.308 167.158H191.305C191.3 167.158 191.295 167.158 191.29 167.158H191.287C190.486 167.158 189.687 167.158 189.367 167.158C188.722 167.158 188.413 167.667 188.756 168.264C188.902 168.519 190.236 171.302 190.236 171.302L190.023 175.746C189.134 174.161 187.704 170.873 186.925 169.029L186.922 169.03C186.761 168.581 186.326 168.258 185.813 168.258C185.676 168.258 185.544 168.282 185.421 168.325C185.419 168.326 185.417 168.326 185.414 168.326C185.205 168.393 180.831 170.277 177.814 171.786C176.458 172.463 175.641 173.306 175.641 174.192C175.641 175.128 175.641 176.177 175.641 177.172C175.641 179.381 177.431 181.172 179.641 181.172H191.276H191.29H191.297H191.305H191.319H191.341H191.363H191.377H191.384H191.392H191.406H203.041C205.25 181.172 207.041 179.381 207.041 177.172C207.041 176.177 207.041 175.128 207.041 174.192C207.041 173.306 206.223 172.463 204.868 171.786Z" fill="#0D5675"/>
<path d="M204.904 94.1067C204.904 101.033 199.283 106.65 192.348 106.65C185.412 106.65 179.791 101.033 179.791 94.1067C179.791 87.1804 185.412 81.5638 192.348 81.5638C199.283 81.5638 204.904 87.1804 204.904 94.1067Z" fill="#F2FAFF" stroke="#27ACF6" stroke-width="2"/>
<rect x="196.834" y="90.3933" width="0.640196" height="9.57498" rx="0.320098" fill="#0D5675"/>
<g clip-path="url(#clip1)">
<path d="M197.474 95.6587C199.181 93.9993 200.889 97.3182 202.596 95.6587C202.596 94.9671 202.596 94.2762 202.596 93.5845C200.889 95.2439 199.181 91.9251 197.474 93.5845C197.474 94.2762 197.474 94.9679 197.474 95.6587Z" fill="#EDD421"/>
<path d="M197.474 93.5831C199.181 91.9237 200.889 95.2425 202.596 93.5831C202.596 92.8914 202.596 92.2005 202.596 91.5088C200.889 93.1682 199.181 89.8494 197.474 91.5088C197.474 92.2005 197.474 92.8922 197.474 93.5831Z" fill="#1072BA"/>
</g>
<path d="M188.799 90.9492C188.908 92.3571 189.476 91.7502 189.594 92.3672C189.789 93.3928 190.711 94.1346 191.285 94.3908C191.62 94.5402 191.965 94.6152 192.328 94.6212V94.6215C192.329 94.6215 192.33 94.6213 192.331 94.6213C192.333 94.6213 192.334 94.6215 192.335 94.6215V94.6212C192.698 94.6152 193.043 94.5402 193.378 94.3908C193.952 94.1346 194.874 93.3928 195.069 92.3672C195.186 91.7503 195.755 92.3571 195.864 90.9492C195.864 90.3881 195.553 90.2484 195.553 90.2484C195.553 90.2484 195.711 89.4179 195.773 88.7788C195.85 87.9824 195.301 85.925 192.374 85.925C192.361 85.925 192.349 85.9257 192.337 85.9258C192.336 85.9258 192.336 85.9258 192.335 85.9258V85.9256C192.334 85.9257 192.333 85.9257 192.331 85.9257C192.33 85.9257 192.329 85.9257 192.328 85.9256V85.9258C192.327 85.9258 192.327 85.9258 192.326 85.9258C192.314 85.9257 192.302 85.925 192.289 85.925C189.362 85.925 188.813 87.9824 188.89 88.7789C188.952 89.4179 189.109 90.2484 189.109 90.2484C189.109 90.2484 188.799 90.3881 188.799 90.9492Z" fill="#0D5675"/>
<path d="M198.971 97.9201C197.495 97.1805 195.355 96.2568 195.252 96.2242C195.251 96.2238 195.25 96.2237 195.249 96.2234C195.189 96.2023 195.124 96.1906 195.057 96.1906C194.806 96.1906 194.593 96.3488 194.514 96.5693L194.513 96.5686C194.132 97.4728 193.432 99.0846 192.997 99.8618L192.893 97.6829C192.893 97.6829 193.545 96.3188 193.617 96.1938C193.785 95.9009 193.634 95.6515 193.318 95.6515C193.162 95.6515 192.771 95.6515 192.379 95.6515H192.377C192.375 95.6515 192.372 95.6515 192.37 95.6515H192.368C192.363 95.6515 192.358 95.6515 192.352 95.6515C192.347 95.6515 192.342 95.6515 192.336 95.6515H192.335C192.332 95.6515 192.33 95.6515 192.327 95.6515H192.326C191.934 95.6515 191.543 95.6515 191.386 95.6515C191.071 95.6515 190.92 95.9009 191.088 96.1938C191.159 96.3188 191.812 97.6829 191.812 97.6829L191.707 99.8618C191.273 99.0846 190.573 97.4729 190.191 96.5686L190.19 96.5693C190.111 96.3489 189.898 96.1906 189.648 96.1906C189.58 96.1906 189.516 96.2023 189.456 96.2234C189.454 96.2238 189.454 96.2239 189.452 96.2242C189.35 96.2568 187.21 97.1805 185.733 97.9201C185.07 98.2522 184.67 98.6653 184.67 99.1C184.67 100.99 186.202 102.522 188.092 102.522H192.321H192.327H192.331H192.335H192.342H192.352H192.363H192.37H192.373H192.377H192.384H196.613C198.503 102.522 200.035 100.99 200.035 99.1C200.035 98.6653 199.635 98.2522 198.971 97.9201Z" fill="#0D5675"/>
<path d="M284.787 161.821C284.787 168.747 279.166 174.364 272.23 174.364C265.295 174.364 259.674 168.747 259.674 161.821C259.674 154.895 265.295 149.278 272.23 149.278C279.166 149.278 284.787 154.895 284.787 161.821Z" fill="#F2FAFF" stroke="#27ACF6" stroke-width="2"/>
<path d="M128.887 160.975C128.887 167.901 123.266 173.518 116.33 173.518C109.394 173.518 103.773 167.901 103.773 160.975C103.773 154.048 109.394 148.432 116.33 148.432C123.266 148.432 128.887 154.048 128.887 160.975Z" fill="#F2FAFF" stroke="#27ACF6" stroke-width="2"/>
<path d="M69.576 129.657C69.576 136.583 63.9552 142.2 57.0194 142.2C50.0837 142.2 44.4629 136.583 44.4629 129.657C44.4629 122.73 50.0837 117.114 57.0194 117.114C63.9552 117.114 69.576 122.73 69.576 129.657Z" fill="white" stroke="#27ACF6" stroke-width="2"/>
<rect x="61.2168" y="125.681" width="0.629043" height="9.42614" rx="0.314521" fill="black"/>
<g clip-path="url(#clip2)">
<path d="M61.8466 130.865C63.5238 129.231 65.2017 132.498 66.8789 130.865C66.8789 130.184 66.8789 129.504 66.8789 128.823C65.2017 130.456 63.5238 127.189 61.8466 128.823C61.8466 129.504 61.8466 130.184 61.8466 130.865Z" fill="#EDD421"/>
<path d="M61.8466 128.821C63.5238 127.188 65.2017 130.455 66.8789 128.821C66.8789 128.14 66.8789 127.46 66.8789 126.779C65.2017 128.413 63.5238 125.146 61.8466 126.779C61.8466 127.46 61.8466 128.141 61.8466 128.821Z" fill="#1072BA"/>
</g>
<path d="M53.3223 126.228C53.4293 127.614 53.9881 127.017 54.1034 127.624C54.295 128.634 55.2012 129.364 55.7653 129.616C56.0944 129.763 56.4333 129.837 56.7896 129.843V129.843C56.7908 129.843 56.792 129.843 56.7933 129.843C56.7945 129.843 56.7957 129.843 56.797 129.843V129.843C57.1533 129.837 57.4921 129.764 57.8213 129.616C58.3853 129.364 59.2915 128.634 59.4832 127.624C59.5985 127.017 60.1573 127.614 60.2643 126.228C60.2643 125.676 59.9592 125.538 59.9592 125.538C59.9592 125.538 60.1143 124.721 60.175 124.092C60.2503 123.308 59.7111 121.282 56.8348 121.282C56.8222 121.282 56.8106 121.283 56.7983 121.283C56.7979 121.283 56.7975 121.283 56.797 121.283V121.283C56.7958 121.283 56.7945 121.283 56.7933 121.283C56.7921 121.283 56.7908 121.283 56.7896 121.283V121.283C56.7892 121.283 56.7887 121.283 56.7883 121.283C56.776 121.283 56.7644 121.282 56.7518 121.282C53.8756 121.282 53.3363 123.308 53.4116 124.092C53.4723 124.721 53.6274 125.538 53.6274 125.538C53.6274 125.538 53.3223 125.676 53.3223 126.228Z" fill="#0D5675"/>
<path d="M63.318 133.091C61.8672 132.363 59.7644 131.453 59.6635 131.421C59.6624 131.421 59.6615 131.421 59.6604 131.42C59.6014 131.4 59.538 131.388 59.4717 131.388C59.2252 131.388 59.0162 131.544 58.9386 131.761L58.9374 131.76C58.5629 132.65 57.8751 134.237 57.448 135.002L57.3451 132.857C57.3451 132.857 57.9865 131.514 58.0567 131.391C58.222 131.103 58.0731 130.858 57.7633 130.858C57.6096 130.858 57.2251 130.858 56.84 130.858H56.8387C56.8362 130.858 56.8337 130.858 56.8313 130.858H56.83C56.8247 130.858 56.8194 130.858 56.8141 130.858C56.8089 130.858 56.8036 130.858 56.7983 130.858H56.797C56.7945 130.858 56.792 130.858 56.7896 130.858H56.7883C56.4032 130.858 56.0187 130.858 55.865 130.858C55.5551 130.858 55.4063 131.103 55.5716 131.391C55.6418 131.514 56.2831 132.857 56.2831 132.857L56.1803 135.002C55.7532 134.237 55.0654 132.651 54.6909 131.76L54.6897 131.761C54.6121 131.544 54.4031 131.388 54.1566 131.388C54.0903 131.388 54.0269 131.4 53.9679 131.42C53.9668 131.421 53.9659 131.421 53.9648 131.421C53.8639 131.453 51.7611 132.363 50.3103 133.091C49.6588 133.418 49.2656 133.824 49.2656 134.252C49.2656 136.113 50.7737 137.621 52.634 137.621H56.783H56.7895H56.7931H56.797H56.8036H56.8142H56.8248H56.8313H56.8349H56.8387H56.8453H60.9943C62.8546 137.621 64.3627 136.113 64.3627 134.252C64.3626 133.824 63.9695 133.418 63.318 133.091Z" fill="#0D5675"/>
<path d="M69.576 192.293C69.576 199.219 63.9552 204.835 57.0194 204.835C50.0837 204.835 44.4629 199.219 44.4629 192.293C44.4629 185.366 50.0837 179.75 57.0194 179.75C63.9552 179.75 69.576 185.366 69.576 192.293Z" fill="#F2FAFF" stroke="#27ACF6" stroke-width="2"/>
<rect x="61.2168" y="188.317" width="0.629043" height="9.42617" rx="0.314521" fill="black"/>
<g clip-path="url(#clip3)">
<path d="M61.8466 193.501C63.5238 191.867 65.2017 195.134 66.8789 193.501C66.8789 192.82 66.8789 192.139 66.8789 191.459C65.2017 193.092 63.5238 189.825 61.8466 191.459C61.8466 192.139 61.8466 192.82 61.8466 193.501Z" fill="#EDD421"/>
<path d="M61.8466 191.457C63.5238 189.823 65.2017 193.091 66.8789 191.457C66.8789 190.776 66.8789 190.096 66.8789 189.415C65.2017 191.049 63.5238 187.781 61.8466 189.415C61.8466 190.096 61.8466 190.777 61.8466 191.457Z" fill="#1072BA"/>
</g>
<path d="M53.3223 188.864C53.4293 190.25 53.9881 189.653 54.1034 190.26C54.295 191.27 55.2012 192 55.7653 192.252C56.0944 192.399 56.4333 192.473 56.7896 192.479V192.479C56.7908 192.479 56.792 192.479 56.7933 192.479C56.7945 192.479 56.7957 192.479 56.797 192.479V192.479C57.1533 192.473 57.4921 192.399 57.8213 192.252C58.3853 192 59.2915 191.27 59.4832 190.26C59.5985 189.653 60.1573 190.25 60.2643 188.864C60.2643 188.312 59.9592 188.174 59.9592 188.174C59.9592 188.174 60.1143 187.357 60.175 186.728C60.2503 185.943 59.7111 183.918 56.8348 183.918C56.8222 183.918 56.8106 183.919 56.7983 183.919C56.7979 183.919 56.7975 183.919 56.797 183.919V183.919C56.7958 183.919 56.7945 183.919 56.7933 183.919C56.7921 183.919 56.7908 183.919 56.7896 183.919V183.919C56.7892 183.919 56.7887 183.919 56.7883 183.919C56.776 183.919 56.7644 183.918 56.7518 183.918C53.8756 183.918 53.3363 185.944 53.4116 186.728C53.4723 187.357 53.6274 188.174 53.6274 188.174C53.6274 188.174 53.3223 188.312 53.3223 188.864Z" fill="#0D5675"/>
<path d="M63.318 195.727C61.8672 194.999 59.7644 194.089 59.6635 194.057C59.6624 194.057 59.6615 194.057 59.6604 194.056C59.6014 194.036 59.538 194.024 59.4717 194.024C59.2252 194.024 59.0162 194.18 58.9386 194.397L58.9374 194.396C58.5629 195.286 57.8751 196.873 57.448 197.638L57.3451 195.493C57.3451 195.493 57.9865 194.15 58.0567 194.027C58.222 193.739 58.0731 193.493 57.7633 193.493C57.6096 193.493 57.2251 193.493 56.84 193.493H56.8387C56.8362 193.493 56.8337 193.493 56.8313 193.493H56.83C56.8247 193.493 56.8194 193.493 56.8141 193.493C56.8089 193.493 56.8036 193.493 56.7983 193.493H56.797C56.7945 193.493 56.792 193.493 56.7896 193.493H56.7883C56.4032 193.493 56.0187 193.493 55.865 193.493C55.5551 193.493 55.4063 193.739 55.5716 194.027C55.6418 194.15 56.2831 195.493 56.2831 195.493L56.1803 197.638C55.7532 196.873 55.0654 195.286 54.6909 194.396L54.6897 194.397C54.6121 194.18 54.4031 194.024 54.1566 194.024C54.0903 194.024 54.0269 194.036 53.9679 194.056C53.9668 194.057 53.9659 194.057 53.9648 194.057C53.8639 194.089 51.7611 194.999 50.3103 195.727C49.6588 196.054 49.2656 196.46 49.2656 196.888C49.2656 198.749 50.7737 200.257 52.6341 200.257H56.783H56.7895H56.7931H56.797H56.8036H56.8142H56.8248H56.8313H56.8349H56.8387H56.8453H60.9942C62.8546 200.257 64.3627 198.749 64.3627 196.888C64.3626 196.46 63.9695 196.054 63.318 195.727Z" fill="#0D5675"/>
<path d="M335.625 127.964C335.625 134.89 330.004 140.507 323.068 140.507C316.133 140.507 310.512 134.89 310.512 127.964C310.512 121.038 316.133 115.421 323.068 115.421C330.004 115.421 335.625 121.038 335.625 127.964Z" fill="#F2FAFF" stroke="#27ACF6" stroke-width="2"/>
<path d="M335.625 192.293C335.625 199.219 330.004 204.835 323.068 204.835C316.133 204.835 310.512 199.219 310.512 192.293C310.512 185.366 316.133 179.75 323.068 179.75C330.004 179.75 335.625 185.366 335.625 192.293Z" fill="#F2FAFF" stroke="#27ACF6" stroke-width="2"/>
<path d="M192.752 107.65L195.687 113.363H189.817L192.752 107.65Z" fill="#27ACF6"/>
<path d="M129.436 161.668L135.166 158.741V164.594L129.436 161.668Z" fill="#27ACF6"/>
<path d="M103.276 164.899L99.8752 170.35L96.8528 165.332L103.276 164.899Z" fill="#27ACF6"/>
<path d="M103.258 159.619L96.8427 159.075L99.9519 154.111L103.258 159.619Z" fill="#27ACF6"/>
<path d="M309.986 189.485L303.669 188.292L307.273 183.663L309.986 189.485Z" fill="#27ACF6"/>
<path d="M310.869 134.062L308.045 139.831L304.531 135.134L310.869 134.062Z" fill="#27ACF6"/>
<path d="M258.674 161.821L252.955 164.753V158.889L258.674 161.821Z" fill="#27ACF6"/>
<path fill-rule="evenodd" clip-rule="evenodd" d="M118.961 151.785H113.839V153.065L111.278 153.065V154.345H109.998V168.43H114.479V165.229H118.321V168.43H122.802V154.345H121.522V153.065L118.961 153.065V151.785ZM115.76 155.626H112.559V157.546H115.76V155.626ZM112.559 158.827H115.76V160.747H112.559V158.827ZM115.76 162.028H112.559V163.948H115.76V162.028ZM120.241 155.626H117.04V157.546H120.241V155.626ZM117.04 158.827H120.241V160.747H117.04V158.827ZM120.241 162.028H117.04V163.948H120.241V162.028Z" fill="#168CCD"/>
<path fill-rule="evenodd" clip-rule="evenodd" d="M325.687 119.261H320.566V120.542H318.005V121.822H316.725V135.907H321.206V132.706H325.047V135.907H329.529V121.822H328.248V120.542H325.687V119.261ZM322.486 123.103H319.285V125.023H322.486V123.103ZM319.285 126.304H322.486V128.224H319.285V126.304ZM322.486 129.505H319.285V131.425H322.486V129.505ZM326.968 123.103H323.767V125.023H326.968V123.103ZM323.767 126.304H326.968V128.224H323.767V126.304ZM326.968 129.505H323.767V131.425H326.968V129.505Z" fill="#168CCD"/>
<path fill-rule="evenodd" clip-rule="evenodd" d="M325.963 182H320.841V183.28H318.28V184.561H317V198.645L321.481 198.645V195.444H325.323V198.645L329.804 198.645V184.561H328.524V183.28H325.963V182ZM322.762 185.841H319.561V187.762H322.762V185.841ZM319.561 189.042H322.762V190.963H319.561V189.042ZM322.762 192.243H319.561V194.164H322.762V192.243ZM327.243 185.841H324.042V187.762H327.243V185.841ZM324.043 189.042H327.244V190.963H324.043V189.042ZM327.243 192.243H324.042V194.164H327.243V192.243Z" fill="#168CCD"/>
<path d="M268.711 161.107C270.569 161.107 272.072 159.604 272.072 157.746C272.072 155.889 270.569 154.385 268.711 154.385C266.853 154.385 265.35 155.889 265.35 157.746C265.35 159.604 266.853 161.107 268.711 161.107ZM271.016 162.068H270.767C270.142 162.368 269.449 162.548 268.711 162.548C267.973 162.548 267.283 162.368 266.655 162.068H266.406C264.498 162.068 262.949 163.616 262.949 165.525V166.389C262.949 167.184 263.594 167.829 264.39 167.829H273.032C273.828 167.829 274.473 167.184 274.473 166.389V165.525C274.473 163.616 272.924 162.068 271.016 162.068ZM277.354 161.107C278.944 161.107 280.235 159.817 280.235 158.226C280.235 156.636 278.944 155.345 277.354 155.345C275.763 155.345 274.473 156.636 274.473 158.226C274.473 159.817 275.763 161.107 277.354 161.107ZM278.794 162.068H278.68C278.263 162.212 277.822 162.308 277.354 162.308C276.886 162.308 276.444 162.212 276.027 162.068H275.913C275.301 162.068 274.737 162.245 274.242 162.53C274.974 163.319 275.433 164.366 275.433 165.525V166.677C275.433 166.743 275.418 166.806 275.415 166.869H280.715C281.51 166.869 282.155 166.224 282.155 165.429C282.155 163.571 280.652 162.068 278.794 162.068Z" fill="#157A62"/>
<path d="M1.86328 3.94077C1.86328 2.8362 2.75871 1.94077 3.86328 1.94077H379.793C380.897 1.94077 381.793 2.8362 381.793 3.94077V21.496H1.86328V3.94077Z" fill="#566CAE"/>
<path d="M13.0369 15.3022C15.6083 15.3022 17.6929 13.2238 17.6929 10.6598C17.6929 8.09589 15.6083 6.01741 13.0369 6.01741C10.4654 6.01741 8.38086 8.09589 8.38086 10.6598C8.38086 13.2238 10.4654 15.3022 13.0369 15.3022Z" fill="#C5D2F8"/>
<path d="M26.0739 15.3022C28.6454 15.3022 30.7299 13.2238 30.7299 10.6598C30.7299 8.09589 28.6454 6.01741 26.0739 6.01741C23.5025 6.01741 21.418 8.09589 21.418 10.6598C21.418 13.2238 23.5025 15.3022 26.0739 15.3022Z" fill="#C5D2F8"/>
<path d="M39.1111 15.3022C41.6825 15.3022 43.7671 13.2238 43.7671 10.6598C43.7671 8.09589 41.6825 6.01741 39.1111 6.01741C36.5396 6.01741 34.4551 8.09589 34.4551 10.6598C34.4551 13.2238 36.5396 15.3022 39.1111 15.3022Z" fill="#C5D2F8"/>
<defs>
<clipPath id="clip0">
<rect width="10.4669" height="10.4164" fill="white" transform="matrix(-1 0 0 1 212.275 157.735)"/>
</clipPath>
<clipPath id="clip1">
<rect width="5.12159" height="5.10666" fill="white" transform="matrix(-1 0 0 1 202.596 91.0316)"/>
</clipPath>
<clipPath id="clip2">
<rect width="5.03235" height="5.02727" fill="white" transform="matrix(-1 0 0 1 66.8789 126.309)"/>
</clipPath>
<clipPath id="clip3">
<rect width="5.03235" height="5.02729" fill="white" transform="matrix(-1 0 0 1 66.8789 188.945)"/>
</clipPath>
</defs>
</svg>
