<svg width="572" height="430" viewBox="0 0 572 430" fill="none" xmlns="http://www.w3.org/2000/svg">
<path d="M558.001 230.761C558.001 321.622 345.874 408.32 245.241 408.32C144.608 408.32 23.0312 327.641 23.0312 236.78C23.0312 145.92 202.938 8.56227 303.571 8.56227C404.204 8.56227 558.001 139.901 558.001 230.761Z" fill="#1C3FAA"/>
<path d="M548.434 260.094C537.806 350.067 348.042 408.781 248.1 397.044C148.158 385.307 14.4543 248.822 25.0829 158.849C35.7114 68.875 226.86 -10.3226 333.929 44.5518C409.608 71.5682 559.063 170.12 548.434 260.094Z" fill="#4674FF"/>
<path d="M558.635 235.965C558.635 319.854 342.069 383.221 248.856 383.221C155.642 383.221 43.0293 308.732 43.0293 224.843C43.0293 140.954 215.86 25.6635 309.073 25.6635C402.287 25.6635 558.635 152.076 558.635 235.965Z" fill="#E0EEFF"/>
</svg>
