<svg width="582" height="430" viewBox="0 0 582 430" fill="none" xmlns="http://www.w3.org/2000/svg">
<path d="M566.001 230.761C566.001 321.622 353.874 408.32 253.241 408.32C152.608 408.32 31.0312 327.641 31.0312 236.78C31.0312 145.92 210.938 8.56227 311.571 8.56227C412.204 8.56227 566.001 139.901 566.001 230.761Z" fill="#1C3FAA"/>
<path d="M556.434 260.094C545.806 350.067 356.042 408.781 256.1 397.044C156.158 385.307 22.4543 248.822 33.0829 158.849C43.7114 68.875 234.86 -10.3226 341.929 44.5518C417.608 71.5682 567.063 170.12 556.434 260.094Z" fill="#4674FF"/>
<path d="M566.635 235.965C566.635 319.854 350.069 383.221 256.856 383.221C163.642 383.221 51.0293 308.732 51.0293 224.843C51.0293 140.954 223.86 25.6635 317.073 25.6635C410.287 25.6635 566.635 152.076 566.635 235.965Z" fill="#E0EEFF"/>
<path d="M386.83 199.191C387.932 198.934 389.078 198.922 390.186 199.156C391.293 199.389 392.336 199.862 393.241 200.541C394.146 201.221 394.891 202.09 395.423 203.088C395.955 204.085 396.261 205.187 396.321 206.316L422.756 213.951L411.876 223.217L388.44 214.546C386.534 214.52 384.704 213.797 383.297 212.513C381.89 211.23 381.003 209.476 380.804 207.583C380.606 205.69 381.109 203.79 382.22 202.244C383.33 200.697 384.971 199.611 386.83 199.191V199.191Z" fill="#E1A7AF"/>
<path d="M502.887 296.395C502.295 295.432 501.922 294.35 501.794 293.227C501.666 292.104 501.786 290.967 502.145 289.895C502.505 288.823 503.096 287.843 503.876 287.024C504.656 286.205 505.607 285.566 506.66 285.154L505.566 257.699L517.808 265.079L516.971 290.019C517.548 291.833 517.438 293.795 516.663 295.533C515.888 297.272 514.501 298.666 512.765 299.452C511.03 300.238 509.065 300.361 507.245 299.798C505.424 299.234 503.874 298.024 502.887 296.395Z" fill="#E1A7AF"/>
<path d="M519.227 278.597L508.344 280.333C507.887 280.406 507.42 280.387 506.971 280.276C506.521 280.166 506.098 279.967 505.727 279.691C505.356 279.415 505.044 279.068 504.81 278.669C504.575 278.271 504.423 277.83 504.362 277.372L499.758 242.749L477.006 211.661C476.163 210.51 475.566 209.198 475.25 207.807C474.935 206.417 474.908 204.976 475.172 203.575C475.435 202.173 475.984 200.841 476.783 199.659C477.582 198.477 478.615 197.472 479.818 196.704L479.818 196.704C482.155 195.213 484.989 194.709 487.697 195.305C490.406 195.901 492.766 197.546 494.26 199.879L517.497 236.185L522.122 274.769C522.151 275.016 522.155 275.264 522.132 275.511C522.06 276.275 521.736 276.993 521.21 277.552C520.684 278.11 519.986 278.478 519.227 278.597Z" fill="#1C3FAA"/>
<path d="M481.708 407.105H472.267L467.775 370.746L481.709 370.747L481.708 407.105Z" fill="#E1A7AF"/>
<path d="M465.521 404.412H483.729V415.858H454.057C454.057 412.823 455.264 409.911 457.414 407.765C459.564 405.618 462.48 404.412 465.521 404.412Z" fill="#2F2E41"/>
<path d="M521.538 390.971L514.484 397.236L488.189 371.349L497.335 363.804L521.538 390.971Z" fill="#E1A7AF"/>
<path d="M507.654 399.699L521.258 387.616L528.878 396.169L506.708 415.859C505.707 414.736 504.938 413.427 504.444 412.007C503.95 410.587 503.741 409.084 503.828 407.583C503.916 406.083 504.299 404.614 504.956 403.261C505.612 401.909 506.529 400.698 507.654 399.699Z" fill="#2F2E41"/>
<path d="M469.248 172.842C479.694 172.842 488.163 164.387 488.163 153.957C488.163 143.528 479.694 135.072 469.248 135.072C458.802 135.072 450.334 143.528 450.334 153.957C450.334 164.387 458.802 172.842 469.248 172.842Z" fill="#E1A7AF"/>
<path d="M482.865 400.297L469.724 399.248C468.875 399.18 468.081 398.803 467.493 398.188C466.905 397.573 466.565 396.763 466.537 395.913L462.869 285.32C462.839 284.466 463.128 283.63 463.679 282.976C464.231 282.322 465.006 281.895 465.854 281.779L492.052 278.129C492.592 278.054 493.142 278.107 493.658 278.283C494.173 278.46 494.639 278.756 495.019 279.147C495.398 279.537 495.68 280.012 495.841 280.531C496.003 281.051 496.039 281.602 495.947 282.138L485.922 340.766C485.895 340.927 485.882 341.09 485.884 341.254L486.606 396.803C486.612 397.261 486.527 397.716 486.356 398.141C486.184 398.566 485.929 398.953 485.607 399.279C485.284 399.606 484.9 399.865 484.476 400.041C484.053 400.218 483.598 400.309 483.139 400.309C483.048 400.309 482.956 400.305 482.865 400.297Z" fill="#2F2E41"/>
<path d="M499.696 387.033L454.554 336.872C454.229 336.511 453.984 336.086 453.834 335.624C453.685 335.163 453.634 334.675 453.685 334.192L459.387 280.827C459.48 279.938 459.916 279.119 460.601 278.544C461.287 277.968 462.169 277.681 463.063 277.742L490.768 279.586C491.297 279.621 491.812 279.777 492.271 280.042C492.731 280.308 493.123 280.675 493.418 281.115C493.713 281.556 493.903 282.058 493.972 282.584C494.042 283.109 493.99 283.644 493.82 284.146L477.22 333.177C477.061 333.644 477.034 334.146 477.142 334.628C477.251 335.11 477.49 335.552 477.834 335.907L516.179 375.585C516.543 375.961 516.816 376.414 516.979 376.911C517.142 377.407 517.19 377.934 517.12 378.452C517.049 378.97 516.863 379.465 516.573 379.9C516.284 380.336 515.899 380.7 515.449 380.966L504.037 387.699C503.347 388.104 502.538 388.259 501.747 388.138C500.957 388.017 500.232 387.626 499.696 387.033L499.696 387.033Z" fill="#2F2E41"/>
<path d="M465.859 184.508C465.859 184.508 477.411 174.512 482.801 179.894C482.801 179.894 507.829 195.657 497.048 238.715C497.048 238.715 506.289 280.235 502.439 281.773C498.588 283.311 459.698 289.078 456.618 284.464C453.538 279.851 451.997 209.112 465.859 184.508Z" fill="#1C3FAA"/>
<path d="M398.581 220.292L400.369 209.433C400.444 208.977 400.61 208.541 400.856 208.15C401.103 207.759 401.426 207.422 401.805 207.157C402.185 206.893 402.613 206.707 403.066 206.611C403.518 206.515 403.986 206.51 404.44 206.597L438.796 213.171L475.525 201.438C476.885 201.003 478.32 200.851 479.742 200.992C481.163 201.133 482.54 201.562 483.788 202.255C485.037 202.947 486.13 203.887 487.001 205.018C487.871 206.148 488.501 207.444 488.85 208.827L488.851 208.826C489.529 211.511 489.112 214.355 487.691 216.733C486.269 219.11 483.96 220.827 481.271 221.504L439.43 232.049L401.304 224.243C401.06 224.193 400.823 224.118 400.596 224.018C399.893 223.709 399.313 223.175 398.948 222.5C398.583 221.825 398.454 221.048 398.581 220.292Z" fill="#1C3FAA"/>
<path d="M477.363 169.276C479.091 165.282 480.554 159.963 477.239 157.139C475.316 155.501 472.546 155.497 470.027 155.294C462.928 154.719 455.622 151.459 452.152 145.249C448.683 139.04 450.62 129.806 457.166 127.005C461.578 125.116 466.636 126.403 471.254 127.71L485.12 131.636C489.24 132.803 493.566 134.089 496.532 137.173C501.263 142.092 500.909 150.407 497.152 156.102C493.395 161.797 487.736 167.736 481.259 169.898L477.363 169.276Z" fill="#2F2E41"/>
<path d="M581.23 417.483H390.247C390.042 417.483 389.847 417.402 389.702 417.258C389.558 417.114 389.477 416.918 389.477 416.715C389.477 416.511 389.558 416.315 389.702 416.171C389.847 416.027 390.042 415.946 390.247 415.946H581.23C581.434 415.946 581.63 416.027 581.775 416.171C581.919 416.315 582 416.511 582 416.715C582 416.918 581.919 417.114 581.775 417.258C581.63 417.402 581.434 417.483 581.23 417.483Z" fill="#3F3D56"/>
<rect x="1" y="55.0784" width="381.654" height="286.672" rx="3" fill="#F7FAFF" stroke="#2D3D69" stroke-width="2"/>
<path d="M381.793 74.8731H1.86328V76.7301H381.793V74.8731Z" fill="#2D3D69"/>
<path d="M167.915 216.931H132.863C132.695 216.931 132.534 216.833 132.416 216.659C132.297 216.485 132.23 216.249 132.23 216.003C132.23 215.756 132.297 215.52 132.416 215.346C132.534 215.172 132.695 215.074 132.863 215.074H167.915C168.083 215.074 168.244 215.172 168.362 215.346C168.481 215.52 168.547 215.756 168.547 216.003C168.547 216.249 168.481 216.485 168.362 216.659C168.244 216.833 168.083 216.931 167.915 216.931Z" fill="#27ACF6"/>
<path d="M192.752 205.664C192.527 205.664 192.311 205.549 192.152 205.346C191.994 205.142 191.904 204.866 191.904 204.577V166.968C191.904 166.68 191.994 166.404 192.152 166.2C192.311 165.996 192.527 165.882 192.752 165.882C192.976 165.882 193.192 165.996 193.351 166.2C193.51 166.404 193.599 166.68 193.599 166.968V204.577C193.599 204.866 193.51 205.142 193.351 205.346C193.192 205.549 192.976 205.664 192.752 205.664Z" fill="#27ACF6"/>
<path d="M101.781 213.217C101.664 213.217 101.55 213.185 101.45 213.125L66.4328 192.156C66.2848 192.067 66.1778 191.922 66.1353 191.753C66.0928 191.584 66.1183 191.406 66.2062 191.256C66.294 191.106 66.437 190.998 66.6039 190.954C66.7708 190.911 66.9479 190.936 67.0963 191.025L102.113 211.994C102.236 212.068 102.331 212.18 102.385 212.313C102.438 212.447 102.447 212.595 102.409 212.734C102.371 212.873 102.289 212.995 102.176 213.083C102.062 213.17 101.923 213.217 101.781 213.217Z" fill="#27ACF6"/>
<path d="M66.7498 241.072C66.6108 241.072 66.4756 241.026 66.3651 240.943C66.2545 240.859 66.1747 240.742 66.1379 240.608C66.1011 240.475 66.1093 240.334 66.1614 240.206C66.2134 240.077 66.3064 239.97 66.4259 239.9L100.544 219.805C100.688 219.719 100.861 219.695 101.024 219.736C101.187 219.778 101.327 219.882 101.412 220.025C101.498 220.169 101.523 220.341 101.481 220.503C101.439 220.665 101.335 220.803 101.19 220.889L67.0724 240.984C66.9748 241.041 66.8633 241.072 66.7498 241.072Z" fill="#27ACF6"/>
<path d="M256.352 216.964H213.663C213.458 216.964 213.263 216.875 213.118 216.716C212.974 216.558 212.893 216.342 212.893 216.118C212.893 215.893 212.974 215.678 213.118 215.519C213.263 215.361 213.458 215.272 213.663 215.272H256.352C256.556 215.272 256.752 215.361 256.896 215.519C257.041 215.678 257.122 215.893 257.122 216.118C257.122 216.342 257.041 216.558 256.896 216.716C256.752 216.875 256.556 216.964 256.352 216.964Z" fill="#27ACF6"/>
<path d="M264.488 216.81C264.319 216.81 264.155 216.754 264.02 216.652C263.886 216.55 263.789 216.407 263.744 216.244C263.7 216.082 263.71 215.909 263.773 215.753C263.836 215.596 263.949 215.465 264.094 215.379L305.537 190.854C305.624 190.803 305.72 190.769 305.82 190.755C305.92 190.74 306.022 190.746 306.12 190.771C306.218 190.796 306.31 190.84 306.391 190.901C306.472 190.961 306.54 191.037 306.592 191.124C306.644 191.211 306.677 191.307 306.692 191.407C306.706 191.507 306.701 191.609 306.676 191.706C306.65 191.804 306.606 191.896 306.546 191.977C306.485 192.058 306.409 192.126 306.322 192.177L264.879 216.702C264.761 216.772 264.626 216.81 264.488 216.81Z" fill="#27ACF6"/>
<path d="M305.929 241.334C305.791 241.334 305.656 241.297 305.537 241.227L264.094 216.702C263.919 216.598 263.791 216.429 263.741 216.231C263.69 216.033 263.72 215.824 263.824 215.648C263.928 215.473 264.098 215.346 264.296 215.296C264.494 215.245 264.704 215.275 264.879 215.379L306.322 239.904C306.467 239.99 306.58 240.121 306.644 240.277C306.707 240.433 306.717 240.606 306.672 240.769C306.628 240.931 306.531 241.075 306.396 241.177C306.262 241.279 306.098 241.334 305.929 241.334V241.334Z" fill="#27ACF6"/>
<path d="M218.765 217.86C218.765 232.688 206.708 244.714 191.829 244.714C176.949 244.714 164.893 232.688 164.893 217.86C164.893 203.031 176.949 191.005 191.829 191.005C206.708 191.005 218.765 203.031 218.765 217.86Z" fill="white" stroke="#27ACF6" stroke-width="2"/>
<rect x="200.5" y="210.433" width="1.30836" height="19.5307" rx="0.654179" fill="#0D5675"/>
<g clip-path="url(#clip0)">
<path d="M201.809 221.173C205.297 217.788 208.787 224.557 212.275 221.173C212.275 219.762 212.275 218.353 212.275 216.942C208.787 220.326 205.297 213.557 201.809 216.942C201.809 218.353 201.809 219.763 201.809 221.173Z" fill="#EDD421"/>
<path d="M201.809 216.941C205.297 213.556 208.787 220.326 212.275 216.941C212.275 215.53 212.275 214.121 212.275 212.71C208.787 216.095 205.297 209.325 201.809 212.71C201.809 214.121 201.809 215.532 201.809 216.941Z" fill="#1072BA"/>
</g>
<path d="M184.078 211.566C184.301 214.438 185.463 213.201 185.703 214.459C186.101 216.551 187.986 218.064 189.159 218.587C189.844 218.891 190.549 219.044 191.29 219.056V219.057C191.292 219.057 191.295 219.057 191.298 219.057C191.3 219.057 191.303 219.057 191.305 219.057V219.056C192.046 219.044 192.751 218.891 193.436 218.587C194.609 218.064 196.494 216.551 196.892 214.459C197.132 213.201 198.294 214.438 198.517 211.566C198.517 210.422 197.882 210.137 197.882 210.137C197.882 210.137 198.205 208.443 198.331 207.14C198.488 205.515 197.366 201.318 191.384 201.318C191.358 201.318 191.334 201.32 191.308 201.32C191.307 201.32 191.306 201.32 191.305 201.32V201.32C191.303 201.32 191.3 201.32 191.298 201.32C191.295 201.32 191.292 201.32 191.29 201.32V201.32C191.289 201.32 191.288 201.32 191.287 201.32C191.262 201.32 191.237 201.318 191.211 201.318C185.229 201.318 184.107 205.515 184.264 207.14C184.39 208.443 184.713 210.137 184.713 210.137C184.713 210.137 184.078 210.422 184.078 211.566Z" fill="#0D5675"/>
<path d="M204.868 225.786C201.851 224.277 197.477 222.393 197.267 222.326C197.265 222.326 197.263 222.325 197.261 222.325C197.138 222.282 197.006 222.258 196.868 222.258C196.356 222.258 195.921 222.581 195.76 223.03L195.757 223.029C194.978 224.873 193.548 228.161 192.659 229.746L192.445 225.302C192.445 225.302 193.779 222.519 193.925 222.264C194.269 221.667 193.959 221.158 193.315 221.158C192.995 221.158 192.196 221.158 191.395 221.158H191.392C191.387 221.158 191.382 221.158 191.377 221.158H191.374C191.363 221.158 191.352 221.158 191.341 221.158C191.33 221.158 191.319 221.158 191.308 221.158H191.305C191.3 221.158 191.295 221.158 191.29 221.158H191.287C190.486 221.158 189.687 221.158 189.367 221.158C188.722 221.158 188.413 221.667 188.756 222.264C188.902 222.519 190.236 225.302 190.236 225.302L190.023 229.746C189.134 228.161 187.704 224.873 186.925 223.029L186.922 223.03C186.761 222.581 186.326 222.258 185.813 222.258C185.676 222.258 185.544 222.282 185.421 222.325C185.419 222.326 185.417 222.326 185.414 222.326C185.205 222.393 180.831 224.277 177.814 225.786C176.458 226.463 175.641 227.306 175.641 228.192C175.641 229.128 175.641 230.177 175.641 231.172C175.641 233.381 177.431 235.172 179.641 235.172H191.276H191.29H191.297H191.305H191.319H191.341H191.363H191.377H191.384H191.392H191.406H203.041C205.25 235.172 207.041 233.381 207.041 231.172C207.041 230.177 207.041 229.128 207.041 228.192C207.041 227.306 206.223 226.463 204.868 225.786Z" fill="#0D5675"/>
<path d="M204.904 148.107C204.904 155.033 199.283 160.65 192.348 160.65C185.412 160.65 179.791 155.033 179.791 148.107C179.791 141.18 185.412 135.564 192.348 135.564C199.283 135.564 204.904 141.18 204.904 148.107Z" fill="#F2FAFF" stroke="#27ACF6" stroke-width="2"/>
<rect x="196.834" y="144.393" width="0.640196" height="9.57498" rx="0.320098" fill="#0D5675"/>
<g clip-path="url(#clip1)">
<path d="M197.474 149.659C199.181 147.999 200.889 151.318 202.596 149.659C202.596 148.967 202.596 148.276 202.596 147.584C200.889 149.244 199.181 145.925 197.474 147.584C197.474 148.276 197.474 148.968 197.474 149.659Z" fill="#EDD421"/>
<path d="M197.474 147.583C199.181 145.924 200.889 149.242 202.596 147.583C202.596 146.891 202.596 146.201 202.596 145.509C200.889 147.168 199.181 143.849 197.474 145.509C197.474 146.201 197.474 146.892 197.474 147.583Z" fill="#1072BA"/>
</g>
<path d="M188.799 144.949C188.908 146.357 189.476 145.75 189.594 146.367C189.789 147.393 190.711 148.135 191.285 148.391C191.62 148.54 191.965 148.615 192.328 148.621V148.621C192.329 148.621 192.33 148.621 192.331 148.621C192.333 148.621 192.334 148.621 192.335 148.621V148.621C192.698 148.615 193.043 148.54 193.378 148.391C193.952 148.135 194.874 147.393 195.069 146.367C195.186 145.75 195.755 146.357 195.864 144.949C195.864 144.388 195.553 144.248 195.553 144.248C195.553 144.248 195.711 143.418 195.773 142.779C195.85 141.982 195.301 139.925 192.374 139.925C192.361 139.925 192.349 139.926 192.337 139.926C192.336 139.926 192.336 139.926 192.335 139.926V139.926C192.334 139.926 192.333 139.926 192.331 139.926C192.33 139.926 192.329 139.926 192.328 139.926V139.926C192.327 139.926 192.327 139.926 192.326 139.926C192.314 139.926 192.302 139.925 192.289 139.925C189.362 139.925 188.813 141.982 188.89 142.779C188.952 143.418 189.109 144.248 189.109 144.248C189.109 144.248 188.799 144.388 188.799 144.949Z" fill="#0D5675"/>
<path d="M198.971 151.92C197.495 151.181 195.355 150.257 195.252 150.224C195.251 150.224 195.25 150.224 195.249 150.223C195.189 150.202 195.124 150.191 195.057 150.191C194.806 150.191 194.593 150.349 194.514 150.569L194.513 150.569C194.132 151.473 193.432 153.085 192.997 153.862L192.893 151.683C192.893 151.683 193.545 150.319 193.617 150.194C193.785 149.901 193.634 149.652 193.318 149.652C193.162 149.652 192.771 149.652 192.379 149.652H192.377C192.375 149.652 192.372 149.652 192.37 149.652H192.368C192.363 149.652 192.358 149.652 192.352 149.652C192.347 149.652 192.342 149.652 192.336 149.652H192.335C192.332 149.652 192.33 149.652 192.327 149.652H192.326C191.934 149.652 191.543 149.652 191.386 149.652C191.071 149.652 190.92 149.901 191.088 150.194C191.159 150.319 191.812 151.683 191.812 151.683L191.707 153.862C191.273 153.085 190.573 151.473 190.191 150.569L190.19 150.569C190.111 150.349 189.898 150.191 189.648 150.191C189.58 150.191 189.516 150.202 189.456 150.223C189.454 150.224 189.454 150.224 189.452 150.224C189.35 150.257 187.21 151.181 185.733 151.92C185.07 152.252 184.67 152.665 184.67 153.1C184.67 154.99 186.202 156.522 188.092 156.522H192.321H192.327H192.331H192.335H192.342H192.352H192.363H192.37H192.373H192.377H192.384H196.613C198.503 156.522 200.035 154.99 200.035 153.1C200.035 152.665 199.635 152.252 198.971 151.92Z" fill="#0D5675"/>
<path d="M284.787 215.821C284.787 222.747 279.166 228.364 272.23 228.364C265.295 228.364 259.674 222.747 259.674 215.821C259.674 208.895 265.295 203.278 272.23 203.278C279.166 203.278 284.787 208.895 284.787 215.821Z" fill="#F2FAFF" stroke="#27ACF6" stroke-width="2"/>
<path d="M128.887 214.975C128.887 221.901 123.266 227.518 116.33 227.518C109.394 227.518 103.773 221.901 103.773 214.975C103.773 208.048 109.394 202.432 116.33 202.432C123.266 202.432 128.887 208.048 128.887 214.975Z" fill="#F2FAFF" stroke="#27ACF6" stroke-width="2"/>
<path d="M69.576 183.657C69.576 190.583 63.9552 196.2 57.0194 196.2C50.0837 196.2 44.4629 190.583 44.4629 183.657C44.4629 176.73 50.0837 171.114 57.0194 171.114C63.9552 171.114 69.576 176.73 69.576 183.657Z" fill="white" stroke="#27ACF6" stroke-width="2"/>
<rect x="61.2168" y="179.681" width="0.629043" height="9.42614" rx="0.314521" fill="black"/>
<g clip-path="url(#clip2)">
<path d="M61.8466 184.865C63.5238 183.231 65.2017 186.498 66.8789 184.865C66.8789 184.184 66.8789 183.504 66.8789 182.823C65.2017 184.456 63.5238 181.189 61.8466 182.823C61.8466 183.504 61.8466 184.184 61.8466 184.865Z" fill="#EDD421"/>
<path d="M61.8466 182.821C63.5238 181.188 65.2017 184.455 66.8789 182.821C66.8789 182.14 66.8789 181.46 66.8789 180.779C65.2017 182.413 63.5238 179.146 61.8466 180.779C61.8466 181.46 61.8466 182.141 61.8466 182.821Z" fill="#1072BA"/>
</g>
<path d="M53.3223 180.228C53.4293 181.614 53.9881 181.017 54.1034 181.624C54.295 182.634 55.2012 183.364 55.7653 183.616C56.0944 183.763 56.4333 183.837 56.7896 183.843V183.843C56.7908 183.843 56.792 183.843 56.7933 183.843C56.7945 183.843 56.7957 183.843 56.797 183.843V183.843C57.1533 183.837 57.4921 183.764 57.8213 183.616C58.3853 183.364 59.2915 182.634 59.4832 181.624C59.5985 181.017 60.1573 181.614 60.2643 180.228C60.2643 179.676 59.9592 179.538 59.9592 179.538C59.9592 179.538 60.1143 178.721 60.175 178.092C60.2503 177.308 59.7111 175.282 56.8348 175.282C56.8222 175.282 56.8106 175.283 56.7983 175.283C56.7979 175.283 56.7975 175.283 56.797 175.283V175.283C56.7958 175.283 56.7945 175.283 56.7933 175.283C56.7921 175.283 56.7908 175.283 56.7896 175.283V175.283C56.7892 175.283 56.7887 175.283 56.7883 175.283C56.776 175.283 56.7644 175.282 56.7518 175.282C53.8756 175.282 53.3363 177.308 53.4116 178.092C53.4723 178.721 53.6274 179.538 53.6274 179.538C53.6274 179.538 53.3223 179.676 53.3223 180.228Z" fill="#0D5675"/>
<path d="M63.318 187.091C61.8672 186.363 59.7644 185.453 59.6635 185.421C59.6624 185.421 59.6615 185.421 59.6604 185.42C59.6014 185.4 59.538 185.388 59.4717 185.388C59.2252 185.388 59.0162 185.544 58.9386 185.761L58.9374 185.76C58.5629 186.65 57.8751 188.237 57.448 189.002L57.3451 186.857C57.3451 186.857 57.9865 185.514 58.0567 185.391C58.222 185.103 58.0731 184.858 57.7633 184.858C57.6096 184.858 57.2251 184.858 56.84 184.858H56.8387C56.8362 184.858 56.8337 184.858 56.8313 184.858H56.83C56.8247 184.858 56.8194 184.858 56.8141 184.858C56.8089 184.858 56.8036 184.858 56.7983 184.858H56.797C56.7945 184.858 56.792 184.858 56.7896 184.858H56.7883C56.4032 184.858 56.0187 184.858 55.865 184.858C55.5551 184.858 55.4063 185.103 55.5716 185.391C55.6418 185.514 56.2831 186.857 56.2831 186.857L56.1803 189.002C55.7532 188.237 55.0654 186.651 54.6909 185.76L54.6897 185.761C54.6121 185.544 54.4031 185.388 54.1566 185.388C54.0903 185.388 54.0269 185.4 53.9679 185.42C53.9668 185.421 53.9659 185.421 53.9648 185.421C53.8639 185.453 51.7611 186.363 50.3103 187.091C49.6588 187.418 49.2656 187.824 49.2656 188.252C49.2656 190.113 50.7737 191.621 52.634 191.621H56.783H56.7895H56.7931H56.797H56.8036H56.8142H56.8248H56.8313H56.8349H56.8387H56.8453H60.9943C62.8546 191.621 64.3627 190.113 64.3627 188.252C64.3626 187.824 63.9695 187.418 63.318 187.091Z" fill="#0D5675"/>
<path d="M69.576 246.293C69.576 253.219 63.9552 258.835 57.0194 258.835C50.0837 258.835 44.4629 253.219 44.4629 246.293C44.4629 239.366 50.0837 233.75 57.0194 233.75C63.9552 233.75 69.576 239.366 69.576 246.293Z" fill="#F2FAFF" stroke="#27ACF6" stroke-width="2"/>
<rect x="61.2168" y="242.317" width="0.629043" height="9.42617" rx="0.314521" fill="black"/>
<g clip-path="url(#clip3)">
<path d="M61.8466 247.501C63.5238 245.867 65.2017 249.134 66.8789 247.501C66.8789 246.82 66.8789 246.139 66.8789 245.459C65.2017 247.092 63.5238 243.825 61.8466 245.459C61.8466 246.139 61.8466 246.82 61.8466 247.501Z" fill="#EDD421"/>
<path d="M61.8466 245.457C63.5238 243.823 65.2017 247.091 66.8789 245.457C66.8789 244.776 66.8789 244.096 66.8789 243.415C65.2017 245.049 63.5238 241.781 61.8466 243.415C61.8466 244.096 61.8466 244.777 61.8466 245.457Z" fill="#1072BA"/>
</g>
<path d="M53.3223 242.864C53.4293 244.25 53.9881 243.653 54.1034 244.26C54.295 245.27 55.2012 246 55.7653 246.252C56.0944 246.399 56.4333 246.473 56.7896 246.479V246.479C56.7908 246.479 56.792 246.479 56.7933 246.479C56.7945 246.479 56.7957 246.479 56.797 246.479V246.479C57.1533 246.473 57.4921 246.399 57.8213 246.252C58.3853 246 59.2915 245.27 59.4832 244.26C59.5985 243.653 60.1573 244.25 60.2643 242.864C60.2643 242.312 59.9592 242.174 59.9592 242.174C59.9592 242.174 60.1143 241.357 60.175 240.728C60.2503 239.943 59.7111 237.918 56.8348 237.918C56.8222 237.918 56.8106 237.919 56.7983 237.919C56.7979 237.919 56.7975 237.919 56.797 237.919V237.919C56.7958 237.919 56.7945 237.919 56.7933 237.919C56.7921 237.919 56.7908 237.919 56.7896 237.919V237.919C56.7892 237.919 56.7887 237.919 56.7883 237.919C56.776 237.919 56.7644 237.918 56.7518 237.918C53.8756 237.918 53.3363 239.944 53.4116 240.728C53.4723 241.357 53.6274 242.174 53.6274 242.174C53.6274 242.174 53.3223 242.312 53.3223 242.864Z" fill="#0D5675"/>
<path d="M63.318 249.727C61.8672 248.999 59.7644 248.089 59.6635 248.057C59.6624 248.057 59.6615 248.057 59.6604 248.056C59.6014 248.036 59.538 248.024 59.4717 248.024C59.2252 248.024 59.0162 248.18 58.9386 248.397L58.9374 248.396C58.5629 249.286 57.8751 250.873 57.448 251.638L57.3451 249.493C57.3451 249.493 57.9865 248.15 58.0567 248.027C58.222 247.739 58.0731 247.493 57.7633 247.493C57.6096 247.493 57.2251 247.493 56.84 247.493H56.8387C56.8362 247.493 56.8337 247.493 56.8313 247.493H56.83C56.8247 247.493 56.8194 247.493 56.8141 247.493C56.8089 247.493 56.8036 247.493 56.7983 247.493H56.797C56.7945 247.493 56.792 247.493 56.7896 247.493H56.7883C56.4032 247.493 56.0187 247.493 55.865 247.493C55.5551 247.493 55.4063 247.739 55.5716 248.027C55.6418 248.15 56.2831 249.493 56.2831 249.493L56.1803 251.638C55.7532 250.873 55.0654 249.286 54.6909 248.396L54.6897 248.397C54.6121 248.18 54.4031 248.024 54.1566 248.024C54.0903 248.024 54.0269 248.036 53.9679 248.056C53.9668 248.057 53.9659 248.057 53.9648 248.057C53.8639 248.089 51.7611 248.999 50.3103 249.727C49.6588 250.054 49.2656 250.46 49.2656 250.888C49.2656 252.749 50.7737 254.257 52.6341 254.257H56.783H56.7895H56.7931H56.797H56.8036H56.8142H56.8248H56.8313H56.8349H56.8387H56.8453H60.9942C62.8546 254.257 64.3627 252.749 64.3627 250.888C64.3626 250.46 63.9695 250.054 63.318 249.727Z" fill="#0D5675"/>
<path d="M335.625 181.964C335.625 188.89 330.004 194.507 323.068 194.507C316.133 194.507 310.512 188.89 310.512 181.964C310.512 175.038 316.133 169.421 323.068 169.421C330.004 169.421 335.625 175.038 335.625 181.964Z" fill="#F2FAFF" stroke="#27ACF6" stroke-width="2"/>
<path d="M335.625 246.293C335.625 253.219 330.004 258.835 323.068 258.835C316.133 258.835 310.512 253.219 310.512 246.293C310.512 239.366 316.133 233.75 323.068 233.75C330.004 233.75 335.625 239.366 335.625 246.293Z" fill="#F2FAFF" stroke="#27ACF6" stroke-width="2"/>
<path d="M192.752 161.65L195.687 167.363H189.817L192.752 161.65Z" fill="#27ACF6"/>
<path d="M129.436 215.668L135.166 212.741V218.594L129.436 215.668Z" fill="#27ACF6"/>
<path d="M103.276 218.899L99.8752 224.35L96.8528 219.332L103.276 218.899Z" fill="#27ACF6"/>
<path d="M103.258 213.619L96.8427 213.075L99.9519 208.111L103.258 213.619Z" fill="#27ACF6"/>
<path d="M309.986 243.485L303.669 242.292L307.273 237.663L309.986 243.485Z" fill="#27ACF6"/>
<path d="M310.869 188.062L308.045 193.831L304.531 189.134L310.869 188.062Z" fill="#27ACF6"/>
<path d="M258.674 215.821L252.955 218.753V212.889L258.674 215.821Z" fill="#27ACF6"/>
<path fill-rule="evenodd" clip-rule="evenodd" d="M118.961 205.785H113.839V207.065L111.278 207.065V208.345H109.998V222.43H114.479V219.229H118.321V222.43H122.802V208.345H121.522V207.065L118.961 207.065V205.785ZM115.76 209.626H112.559V211.546H115.76V209.626ZM112.559 212.827H115.76V214.747H112.559V212.827ZM115.76 216.028H112.559V217.948H115.76V216.028ZM120.241 209.626H117.04V211.546H120.241V209.626ZM117.04 212.827H120.241V214.747H117.04V212.827ZM120.241 216.028H117.04V217.948H120.241V216.028Z" fill="#168CCD"/>
<path fill-rule="evenodd" clip-rule="evenodd" d="M325.687 173.261H320.566V174.542H318.005V175.822H316.725V189.907H321.206V186.706H325.047V189.907H329.529V175.822H328.248V174.542H325.687V173.261ZM322.486 177.103H319.285V179.023H322.486V177.103ZM319.285 180.304H322.486V182.224H319.285V180.304ZM322.486 183.505H319.285V185.425H322.486V183.505ZM326.968 177.103H323.767V179.023H326.968V177.103ZM323.767 180.304H326.968V182.224H323.767V180.304ZM326.968 183.505H323.767V185.425H326.968V183.505Z" fill="#168CCD"/>
<path fill-rule="evenodd" clip-rule="evenodd" d="M325.963 236H320.841V237.28H318.28V238.561H317V252.645L321.481 252.645V249.444H325.323V252.645L329.804 252.645V238.561H328.524V237.28H325.963V236ZM322.762 239.841H319.561V241.762H322.762V239.841ZM319.561 243.042H322.762V244.963H319.561V243.042ZM322.762 246.243H319.561V248.164H322.762V246.243ZM327.243 239.841H324.042V241.762H327.243V239.841ZM324.043 243.042H327.244V244.963H324.043V243.042ZM327.243 246.243H324.042V248.164H327.243V246.243Z" fill="#168CCD"/>
<path d="M268.711 215.107C270.569 215.107 272.072 213.604 272.072 211.746C272.072 209.889 270.569 208.385 268.711 208.385C266.853 208.385 265.35 209.889 265.35 211.746C265.35 213.604 266.853 215.107 268.711 215.107ZM271.016 216.068H270.767C270.142 216.368 269.449 216.548 268.711 216.548C267.973 216.548 267.283 216.368 266.655 216.068H266.406C264.498 216.068 262.949 217.616 262.949 219.525V220.389C262.949 221.184 263.594 221.829 264.39 221.829H273.032C273.828 221.829 274.473 221.184 274.473 220.389V219.525C274.473 217.616 272.924 216.068 271.016 216.068ZM277.354 215.107C278.944 215.107 280.235 213.817 280.235 212.226C280.235 210.636 278.944 209.345 277.354 209.345C275.763 209.345 274.473 210.636 274.473 212.226C274.473 213.817 275.763 215.107 277.354 215.107ZM278.794 216.068H278.68C278.263 216.212 277.822 216.308 277.354 216.308C276.886 216.308 276.444 216.212 276.027 216.068H275.913C275.301 216.068 274.737 216.245 274.242 216.53C274.974 217.319 275.433 218.366 275.433 219.525V220.677C275.433 220.743 275.418 220.806 275.415 220.869H280.715C281.51 220.869 282.155 220.224 282.155 219.429C282.155 217.571 280.652 216.068 278.794 216.068Z" fill="#157A62"/>
<path d="M1.86328 57.9408C1.86328 56.8362 2.75871 55.9408 3.86328 55.9408H379.793C380.897 55.9408 381.793 56.8362 381.793 57.9408V75.496H1.86328V57.9408Z" fill="#566CAE"/>
<path d="M13.0369 69.3022C15.6083 69.3022 17.6929 67.2238 17.6929 64.6598C17.6929 62.0959 15.6083 60.0174 13.0369 60.0174C10.4654 60.0174 8.38086 62.0959 8.38086 64.6598C8.38086 67.2238 10.4654 69.3022 13.0369 69.3022Z" fill="#C5D2F8"/>
<path d="M26.0739 69.3022C28.6454 69.3022 30.7299 67.2238 30.7299 64.6598C30.7299 62.0959 28.6454 60.0174 26.0739 60.0174C23.5025 60.0174 21.418 62.0959 21.418 64.6598C21.418 67.2238 23.5025 69.3022 26.0739 69.3022Z" fill="#C5D2F8"/>
<path d="M39.1111 69.3022C41.6825 69.3022 43.7671 67.2238 43.7671 64.6598C43.7671 62.0959 41.6825 60.0174 39.1111 60.0174C36.5396 60.0174 34.4551 62.0959 34.4551 64.6598C34.4551 67.2238 36.5396 69.3022 39.1111 69.3022Z" fill="#C5D2F8"/>
<defs>
<clipPath id="clip0">
<rect width="10.4669" height="10.4164" fill="white" transform="matrix(-1 0 0 1 212.275 211.735)"/>
</clipPath>
<clipPath id="clip1">
<rect width="5.12159" height="5.10666" fill="white" transform="matrix(-1 0 0 1 202.596 145.032)"/>
</clipPath>
<clipPath id="clip2">
<rect width="5.03235" height="5.02727" fill="white" transform="matrix(-1 0 0 1 66.8789 180.309)"/>
</clipPath>
<clipPath id="clip3">
<rect width="5.03235" height="5.02729" fill="white" transform="matrix(-1 0 0 1 66.8789 242.945)"/>
</clipPath>
</defs>
</svg>
