<svg width="159" height="42" viewBox="0 0 159 42" fill="none" xmlns="http://www.w3.org/2000/svg">
<path d="M12.4006 0C14.7802 0 16.8531 0.390314 18.6194 1.17094C20.3857 1.95156 21.7471 3.07372 22.7038 4.53739C23.6606 6.00106 24.1389 7.70869 24.1389 9.66026C24.1389 11.6118 23.6606 13.3195 22.7038 14.7831C21.7471 16.2468 20.3857 17.369 18.6194 18.1496C16.8531 18.9302 14.7802 19.3205 12.4006 19.3205H8.68412V25.6143H0V0H12.4006ZM11.8486 12.6608C13.0262 12.6608 13.9094 12.4047 14.498 11.8924C15.0868 11.3557 15.3812 10.6116 15.3812 9.66026C15.3812 8.70886 15.0868 7.97702 14.498 7.46474C13.9094 6.92806 13.0262 6.65972 11.8486 6.65972H8.68412V12.6608H11.8486Z" fill="#1D1D1B"/>
<path d="M67.537 19.101V25.6143H46.1211V0H67.0586V6.51336H54.658V9.51389H65.55V15.7345H54.658V19.101H67.537Z" fill="#1D1D1B"/>
<path d="M102.416 0C104.796 0 106.869 0.390314 108.635 1.17094C110.401 1.95156 111.763 3.07372 112.719 4.53739C113.676 6.00106 114.155 7.70869 114.155 9.66026C114.155 11.6118 113.676 13.3195 112.719 14.7831C111.763 16.2468 110.401 17.369 108.635 18.1496C106.869 18.9302 104.796 19.3205 102.416 19.3205H98.6998V25.6143H90.0156V0H102.416ZM101.864 12.6608C103.042 12.6608 103.925 12.4047 104.514 11.8924C105.103 11.3557 105.397 10.6116 105.397 9.66026C105.397 8.70886 105.103 7.97702 104.514 7.46474C103.925 6.92806 103.042 6.65972 101.864 6.65972H98.6998V12.6608H101.864Z" fill="#1D1D1B"/>
<path d="M133.52 32.7864H159V40.9829H133.52V32.7864Z" fill="#4EAD33"/>
</svg>
