<svg width="162" height="51" viewBox="0 0 162 51" fill="none" xmlns="http://www.w3.org/2000/svg">
<path d="M161.999 43H135.836V51H161.999V43Z" fill="#1D9DD9"/>
<path d="M14.5779 10.1001C16.9706 10.1001 19.0549 10.4948 20.8309 11.2841C22.6069 12.0734 23.9759 13.2081 24.9379 14.6881C25.8999 16.1681 26.3809 17.8948 26.3809 19.8681C26.3809 21.8414 25.8999 23.5681 24.9379 25.0481C23.9759 26.5281 22.6069 27.6628 20.8309 28.4521C19.0549 29.2414 16.9706 29.6361 14.5779 29.6361H10.8409V36.0001H2.10889V10.1001H14.5779ZM14.0229 22.9021C15.2069 22.9021 16.0949 22.6431 16.6869 22.1251C17.2789 21.5824 17.5749 20.8301 17.5749 19.8681C17.5749 18.9061 17.2789 18.1661 16.6869 17.6481C16.0949 17.1054 15.2069 16.8341 14.0229 16.8341H10.8409V22.9021H14.0229ZM69.8336 29.4141V36.0001H48.2996V10.1001H69.3526V16.6861H56.8836V19.7201H67.8356V26.0101H56.8836V29.4141H69.8336ZM104.719 10.1001C107.112 10.1001 109.196 10.4948 110.972 11.2841C112.748 12.0734 114.117 13.2081 115.079 14.6881C116.041 16.1681 116.522 17.8948 116.522 19.8681C116.522 21.8414 116.041 23.5681 115.079 25.0481C114.117 26.5281 112.748 27.6628 110.972 28.4521C109.196 29.2414 107.112 29.6361 104.719 29.6361H100.982V36.0001H92.2502V10.1001H104.719ZM104.164 22.9021C105.348 22.9021 106.236 22.6431 106.828 22.1251C107.42 21.5824 107.716 20.8301 107.716 19.8681C107.716 18.9061 107.42 18.1661 106.828 17.6481C106.236 17.1054 105.348 16.8341 104.164 16.8341H100.982V22.9021H104.164Z" fill="white"/>
</svg>
