<svg width="120" height="30" viewBox="0 0 120 30" fill="none" xmlns="http://www.w3.org/2000/svg">
<path d="M16.7405 15.532H13.9473V22.9508H16.7405C18.7835 22.9508 20.4468 21.2922 20.4468 19.2549V19.2279C20.4468 17.1816 18.7835 15.532 16.7405 15.532Z" fill="url(#paint0_linear)"/>
<path d="M27.2993 7.19358H18.9467C18.7478 7.19358 18.5851 7.35584 18.5851 7.55416V9.63649C18.5851 9.8348 18.4224 9.99706 18.2235 9.99706H13.4054C13.2065 9.99706 13.0438 9.8348 13.0438 9.63649V5.04815C13.0438 4.80476 12.8449 4.60645 12.6008 4.60645H10.7296C10.4856 4.60645 10.2867 4.80476 10.2867 5.04815V7.19358H7.96349C7.76462 7.19358 7.6019 7.35584 7.6019 7.55416V15.3426C7.6019 15.5409 7.43919 15.7032 7.24031 15.7032H5.09791C4.89904 15.7032 4.73633 15.8654 4.73633 16.0638V29.6395C4.73633 29.8378 4.89904 30 5.09791 30H27.2993C27.4982 30 27.6609 29.8378 27.6609 29.6395V7.55416C27.6609 7.35584 27.4982 7.19358 27.2993 7.19358ZM23.8823 19.2459C23.8823 23.1761 20.6823 26.3672 16.741 26.3672H10.5127V12.1064H16.741C20.6823 12.1064 23.8823 15.2975 23.8823 19.2278V19.2459Z" fill="url(#paint1_linear)"/>
<path d="M42.9975 17.6982C42.9975 18.6379 42.82 19.4731 42.465 20.204C42.11 20.9349 41.6298 21.5196 41.0242 21.9581C40.429 22.3966 39.7712 22.7255 39.0508 22.9448C38.3304 23.1641 37.5734 23.2737 36.7799 23.2737H32.6452V12.1853H36.6546C37.3124 12.1853 37.9336 12.2427 38.5183 12.3576C39.1135 12.462 39.6877 12.6499 40.2411 12.9214C40.7945 13.1929 41.2695 13.5322 41.6663 13.9394C42.0735 14.3466 42.3972 14.8739 42.6373 15.5212C42.8775 16.1581 42.9975 16.8838 42.9975 17.6982ZM40.2098 17.6982C40.2098 17.103 40.1106 16.5914 39.9122 16.1633C39.7138 15.7248 39.4371 15.3855 39.0821 15.1453C38.7376 14.9052 38.3565 14.7329 37.9388 14.6285C37.5316 14.5241 37.0827 14.4719 36.592 14.4719H35.2607V20.9558H36.5293C37.6047 20.9558 38.487 20.7 39.1761 20.1884C39.8652 19.6767 40.2098 18.8467 40.2098 17.6982Z" fill="#5C96D0"/>
<path d="M49.2373 20.1414V19.8751H48.9084C47.3109 19.8751 46.5122 20.2301 46.5122 20.9401C46.5122 21.2116 46.6218 21.4152 46.8411 21.5509C47.0604 21.6762 47.3214 21.7389 47.6242 21.7389C48.1358 21.7389 48.5325 21.5979 48.8144 21.316C49.0964 21.0236 49.2373 20.6321 49.2373 20.1414ZM45.8231 17.9331L44.5232 16.5392C45.4524 15.6622 46.6114 15.2236 48 15.2236C49.2843 15.2236 50.2031 15.5525 50.7565 16.2103C51.3098 16.8577 51.5865 17.9018 51.5865 19.3426V23.2737H49.2373V22.4436H49.1903C49.0024 22.7569 48.7048 23.0074 48.2976 23.1954C47.8904 23.3729 47.4519 23.4616 46.982 23.4616C46.5226 23.4616 46.0893 23.3938 45.6821 23.258C45.2854 23.1118 44.9304 22.8456 44.6171 22.4593C44.3039 22.073 44.1473 21.5927 44.1473 21.0184C44.1473 19.2643 45.8179 18.3873 49.159 18.3873V18.262C49.159 17.8966 49.0285 17.6199 48.7675 17.4319C48.5064 17.2335 48.1671 17.1344 47.7495 17.1344C47.0395 17.1344 46.3973 17.4006 45.8231 17.9331ZM57.9708 17.4006H56.1384V20.3763C56.1384 20.7522 56.2115 21.0289 56.3577 21.2064C56.5039 21.3839 56.7544 21.4726 57.1094 21.4726C57.4122 21.4726 57.6628 21.4308 57.8612 21.3473L57.8925 23.2267C57.4644 23.3833 56.9685 23.4616 56.4047 23.4616C55.4128 23.4616 54.7028 23.2215 54.2747 22.7412C53.8466 22.2609 53.6326 21.577 53.6326 20.6895V17.4006H52.3796V15.4742H53.6169V13.4226H56.1384V15.4742H57.9708V17.4006ZM63.7824 20.1414V19.8751H63.4535C61.856 19.8751 61.0572 20.2301 61.0572 20.9401C61.0572 21.2116 61.1669 21.4152 61.3861 21.5509C61.6054 21.6762 61.8664 21.7389 62.1692 21.7389C62.6808 21.7389 63.0776 21.5979 63.3595 21.316C63.6414 21.0236 63.7824 20.6321 63.7824 20.1414ZM60.3681 17.9331L59.0682 16.5392C59.9975 15.6622 61.1564 15.2236 62.5451 15.2236C63.8293 15.2236 64.7481 15.5525 65.3015 16.2103C65.8549 16.8577 66.1316 17.9018 66.1316 19.3426V23.2737H63.7824V22.4436H63.7354C63.5474 22.7569 63.2499 23.0074 62.8427 23.1954C62.4355 23.3729 61.9969 23.4616 61.5271 23.4616C61.0677 23.4616 60.6344 23.3938 60.2272 23.258C59.8304 23.1118 59.4754 22.8456 59.1622 22.4593C58.849 22.073 58.6923 21.5927 58.6923 21.0184C58.6923 19.2643 60.3629 18.3873 63.704 18.3873V18.262C63.704 17.8966 63.5735 17.6199 63.3125 17.4319C63.0515 17.2335 62.7121 17.1344 62.2945 17.1344C61.5845 17.1344 60.9424 17.4006 60.3681 17.9331ZM92.1453 16.273L90.6574 17.9957C90.5217 17.8078 90.3233 17.6564 90.0623 17.5416C89.8117 17.4267 89.5559 17.3693 89.2949 17.3693C88.7624 17.3693 88.3291 17.5677 87.995 17.9644C87.6609 18.3507 87.4938 18.8206 87.4938 19.374C87.4938 19.9273 87.6609 20.3972 87.995 20.7835C88.3291 21.1698 88.7728 21.363 89.3262 21.363C89.9318 21.363 90.3964 21.1698 90.7201 20.7835L92.1453 22.5219C91.4562 23.1902 90.4956 23.5243 89.2636 23.5243C88.0002 23.5243 86.9561 23.1484 86.1313 22.3966C85.3064 21.6449 84.894 20.6373 84.894 19.374C84.894 18.1315 85.3064 17.1291 86.1313 16.3669C86.9665 15.6047 88.0054 15.2236 89.2479 15.2236C89.8013 15.2236 90.3442 15.3228 90.8767 15.5212C91.4196 15.7092 91.8425 15.9597 92.1453 16.273ZM95.2295 18.4812H98.5341C98.5341 18.0532 98.3984 17.6982 98.1269 17.4163C97.8659 17.1344 97.49 16.9934 96.9993 16.9934C96.519 16.9934 96.1118 17.1396 95.7777 17.4319C95.4435 17.7243 95.2608 18.074 95.2295 18.4812ZM100.899 19.4679C100.899 19.7498 100.894 19.9534 100.883 20.0787H95.2295C95.2713 20.4964 95.4749 20.8461 95.8403 21.1281C96.2057 21.41 96.6234 21.5509 97.0932 21.5509C97.845 21.5509 98.4192 21.2794 98.816 20.7365L100.601 21.8641C99.8392 22.9709 98.6594 23.5243 97.0619 23.5243C95.8403 23.5243 94.8171 23.1588 93.9922 22.428C93.1778 21.6866 92.7706 20.6791 92.7706 19.4053C92.7706 18.1524 93.1674 17.1448 93.9609 16.3826C94.7649 15.61 95.7724 15.2236 96.9836 15.2236C98.153 15.2236 99.0979 15.6047 99.8183 16.3669C100.539 17.1187 100.899 18.1524 100.899 19.4679ZM107.005 20.1414V19.8751H106.676C105.078 19.8751 104.279 20.2301 104.279 20.9401C104.279 21.2116 104.389 21.4152 104.608 21.5509C104.828 21.6762 105.089 21.7389 105.391 21.7389C105.903 21.7389 106.3 21.5979 106.582 21.316C106.864 21.0236 107.005 20.6321 107.005 20.1414ZM103.59 17.9331L102.29 16.5392C103.22 15.6622 104.379 15.2236 105.767 15.2236C107.052 15.2236 107.97 15.5525 108.524 16.2103C109.077 16.8577 109.354 17.9018 109.354 19.3426V23.2737H107.005V22.4436H106.958C106.77 22.7569 106.472 23.0074 106.065 23.1954C105.658 23.3729 105.219 23.4616 104.749 23.4616C104.29 23.4616 103.857 23.3938 103.449 23.258C103.053 23.1118 102.698 22.8456 102.384 22.4593C102.071 22.073 101.915 21.5927 101.915 21.0184C101.915 19.2643 103.585 18.3873 106.926 18.3873V18.262C106.926 17.8966 106.796 17.6199 106.535 17.4319C106.274 17.2335 105.934 17.1344 105.517 17.1344C104.807 17.1344 104.165 17.4006 103.59 17.9331ZM118.976 23.2737H116.392V19.0137C116.392 17.9174 116.006 17.3693 115.233 17.3693C114.795 17.3693 114.455 17.5311 114.215 17.8548C113.975 18.1785 113.855 18.5752 113.855 19.0451V23.2737H111.271V15.4742H113.761V16.5549H113.792C113.98 16.1894 114.283 15.8814 114.701 15.6308C115.129 15.3803 115.604 15.255 116.126 15.255C117.097 15.255 117.812 15.5682 118.272 16.1947C118.741 16.8107 118.976 17.5624 118.976 18.4499V23.2737Z" fill="#304379"/>
<path d="M83.6632 17.6825C83.6632 19.4262 83.0942 20.8461 81.9561 21.9425C80.818 23.0283 79.3719 23.5713 77.6179 23.5713C75.8742 23.5713 74.4333 23.0283 73.2953 21.9425C72.1572 20.8461 71.5882 19.4262 71.5882 17.6825C71.5882 15.9284 72.152 14.5241 73.2796 13.4696C74.4177 12.415 75.8638 11.8877 77.6179 11.8877C79.3824 11.8877 80.8285 12.415 81.9561 13.4696C83.0942 14.5241 83.6632 15.9284 83.6632 17.6825ZM80.7971 17.6825C80.7971 16.7011 80.4996 15.8919 79.9044 15.255C79.3093 14.6181 78.5471 14.2996 77.6179 14.2996C76.6886 14.2996 75.9264 14.6181 75.3313 15.255C74.7466 15.8919 74.4542 16.7011 74.4542 17.6825C74.4542 18.6848 74.7466 19.5097 75.3313 20.157C75.9264 20.8044 76.6886 21.1281 77.6179 21.1281C78.5471 21.1281 79.3093 20.8044 79.9044 20.157C80.4996 19.5097 80.7971 18.6848 80.7971 17.6825Z" fill="#5E96D3"/>
<path d="M16.7413 26.3673C20.6826 26.3673 23.8826 23.1762 23.8826 19.2459V19.2188C23.8826 18.9394 23.8645 18.6599 23.8284 18.3805C23.0148 19.354 21.8758 20.1653 20.3391 20.0932C19.9504 21.7158 18.4859 22.9328 16.7322 22.9328H13.939V17.8937C12.6101 17.8396 11.4531 18.2272 10.5039 18.7411V26.3582H16.7413V26.3673Z" fill="#629DD9"/>
<path d="M9.20288 2.74038H7.17799C6.97912 2.74038 6.81641 2.57812 6.81641 2.3798V0.360576C6.81641 0.162259 6.97912 0 7.17799 0H9.20288C9.40175 0 9.56446 0.162259 9.56446 0.360576V2.3798C9.56446 2.57812 9.40175 2.74038 9.20288 2.74038Z" fill="#5F96D1"/>
<path d="M18.3787 7.35562H16.3538C16.1549 7.35562 15.9922 7.19336 15.9922 6.99504V4.97581C15.9922 4.77749 16.1549 4.61523 16.3538 4.61523H18.3787C18.5775 4.61523 18.7402 4.77749 18.7402 4.97581V6.99504C18.7402 7.19336 18.5775 7.35562 18.3787 7.35562Z" fill="#5F96D1"/>
<path d="M8.0271 11.5656H6.00221C5.80334 11.5656 5.64062 11.4033 5.64062 11.205V9.18577C5.64062 8.98745 5.80334 8.8252 6.00221 8.8252H8.0271C8.22597 8.8252 8.38868 8.98745 8.38868 9.18577V11.205C8.38868 11.4033 8.22597 11.5656 8.0271 11.5656Z" fill="url(#paint2_linear)"/>
<path d="M5.27905 24.546H3.25416C3.05529 24.546 2.89258 24.3838 2.89258 24.1855V22.1662C2.89258 21.9679 3.05529 21.8057 3.25416 21.8057H5.27905C5.47792 21.8057 5.64064 21.9679 5.64064 22.1662V24.1855C5.64064 24.3838 5.47792 24.546 5.27905 24.546Z" fill="#6098D5"/>
<path d="M5.45092 8.90615H3.42604C3.22717 8.90615 3.06445 8.74389 3.06445 8.54558V6.52635C3.06445 6.32803 3.22717 6.16577 3.42604 6.16577H5.45092C5.6498 6.16577 5.81251 6.32803 5.81251 6.52635V8.54558C5.81251 8.74389 5.6498 8.90615 5.45092 8.90615Z" fill="#5E96D3"/>
<path d="M5.38764 14.1166H0.53334C0.244071 14.1166 0 13.8822 0 13.5847V11.899C0 11.6106 0.235031 11.3672 0.53334 11.3672H5.38764C5.67691 11.3672 5.92098 11.6016 5.92098 11.899V13.5847C5.91194 13.8822 5.67691 14.1166 5.38764 14.1166Z" fill="#5E97D1"/>
<defs>
<linearGradient id="paint0_linear" x1="13.1683" y1="16.303" x2="19.0315" y2="22.1827" gradientUnits="userSpaceOnUse">
<stop stop-color="#4B79B5"/>
<stop offset="1" stop-color="#3E65A3"/>
</linearGradient>
<linearGradient id="paint1_linear" x1="6.28994" y1="8.71146" x2="27.4838" y2="29.9647" gradientUnits="userSpaceOnUse">
<stop stop-color="#5F9BD7"/>
<stop offset="0.6042" stop-color="#416BA9"/>
<stop offset="1" stop-color="#2C4988"/>
</linearGradient>
<linearGradient id="paint2_linear" x1="5.46893" y1="9.7765" x2="8.56373" y2="10.6081" gradientUnits="userSpaceOnUse">
<stop stop-color="#5F9BD7"/>
<stop offset="1" stop-color="#5183C0"/>
</linearGradient>
</defs>
</svg>
